<?xml version="1.0" encoding="UTF-8"?>
<!DOCTYPE svg PUBLIC "-//W3C//DTD SVG 1.1//EN" "http://www.w3.org/Graphics/SVG/1.1/DTD/svg11.dtd">
<!-- Creator: CorelDRAW 2020 (64-Bit) -->
<svg xmlns="http://www.w3.org/2000/svg" xml:space="preserve" width="156px" height="156px" version="1.1" style="shape-rendering:geometricPrecision; text-rendering:geometricPrecision; image-rendering:optimizeQuality; fill-rule:evenodd; clip-rule:evenodd"
viewBox="0 0 44.45 44.45"
 xmlns:xlink="http://www.w3.org/1999/xlink"
 xmlns:xodm="http://www.corel.com/coreldraw/odm/2003">
 <defs>
  <style type="text/css">
   <![CDATA[
    .str0 {stroke:#7975B4;stroke-width:1.02;stroke-miterlimit:22.9256}
    .fil0 {fill:none}
    .fil1 {fill:#3D3F8F;fill-rule:nonzero}
   ]]>
  </style>
 </defs>
 <g id="Layer_x0020_1">
  <metadata id="CorelCorpID_0Corel-Layer"/>
  <circle class="fil0 str0" cx="22.22" cy="22.22" r="21.71"/>
  <g id="Business_x0020_Growth.eps">
   <path class="fil1" d="M26.79 10.99c-0.04,-0.12 -0.13,-0.2 -0.25,-0.24 -0.11,-0.03 -0.24,-0.01 -0.33,0.07l-2.29 1.76c-0.17,0.13 -0.2,0.36 -0.07,0.53 0.12,0.16 0.36,0.19 0.53,0.07l1.43 -1.11c-1.83,5.51 -5.49,8.64 -8.31,10.31 -3.21,1.91 -6.06,2.4 -6.09,2.4 -0.21,0.03 -0.35,0.23 -0.31,0.43 0.03,0.19 0.19,0.32 0.37,0.32 0.02,0 0.04,0 0.06,-0.01 0.12,-0.01 2.99,-0.5 6.33,-2.47 1.96,-1.16 3.67,-2.6 5.08,-4.27 1.56,-1.85 2.75,-3.99 3.56,-6.38l0.6 1.66c0.05,0.15 0.2,0.25 0.35,0.25 0.04,0 0.09,-0.01 0.13,-0.02 0.19,-0.07 0.3,-0.29 0.22,-0.48l-1.01 -2.82z"/>
   <path class="fil1" d="M23.42 34.33l0 -11.7 3.37 0 0 11.7 -3.37 0zm-5.76 0l0 -9.01 3.37 0 0 9.01 -3.37 0zm17.05 0l-1.4 0 0 -13.82c0,-0.21 -0.17,-0.37 -0.38,-0.37 -0.21,0 -0.38,0.16 -0.38,0.37l0 13.82 -3.36 0 0 -21.07 3.36 0 0 4.62c0,0.21 0.17,0.38 0.38,0.38 0.21,0 0.38,-0.17 0.38,-0.38l0 -4.75c0,-0.34 -0.29,-0.62 -0.63,-0.62l-3.62 0c-0.34,0 -0.63,0.28 -0.63,0.62l0 21.2 -0.89 0 0 -11.83c0,-0.34 -0.28,-0.62 -0.63,-0.62l-3.61 0c-0.35,0 -0.63,0.28 -0.63,0.62l0 11.83 -0.89 0 0 -9.14c0,-0.35 -0.28,-0.63 -0.63,-0.63l-3.61 0c-0.35,0 -0.63,0.28 -0.63,0.63l0 9.14 -0.89 0 0 -5.25c0,-0.34 -0.29,-0.62 -0.63,-0.62l-3.62 0c-0.34,0 -0.63,0.28 -0.63,0.62l0 1.21c0,0.21 0.17,0.38 0.38,0.38 0.21,0 0.38,-0.17 0.38,-0.38l0 -1.08 3.36 0 0 5.12 -3.36 0 0 -1.35c0,-0.21 -0.17,-0.38 -0.38,-0.38 -0.21,0 -0.38,0.17 -0.38,0.38l0 1.35 -1.02 0 0 -24.59c0,-0.21 -0.17,-0.38 -0.38,-0.38 -0.21,0 -0.38,0.17 -0.38,0.38l0 24.97c0,0.21 0.17,0.38 0.38,0.38l24.97 0c0.21,0 0.38,-0.16 0.38,-0.37 0,-0.21 -0.17,-0.39 -0.38,-0.39z"/>
  </g>
 </g>
</svg>
