<?xml version="1.0" encoding="UTF-8"?>
<!DOCTYPE svg PUBLIC "-//W3C//DTD SVG 1.1//EN" "http://www.w3.org/Graphics/SVG/1.1/DTD/svg11.dtd">
<!-- Creator: CorelDRAW 2020 (64-Bit) -->
<svg xmlns="http://www.w3.org/2000/svg" xml:space="preserve" width="156px" height="156px" version="1.1" style="shape-rendering:geometricPrecision; text-rendering:geometricPrecision; image-rendering:optimizeQuality; fill-rule:evenodd; clip-rule:evenodd"
viewBox="0 0 34.51 34.51"
 xmlns:xlink="http://www.w3.org/1999/xlink"
 xmlns:xodm="http://www.corel.com/coreldraw/odm/2003">
 <defs>
  <style type="text/css">
   <![CDATA[
    .str0 {stroke:#7975B4;stroke-width:0.79;stroke-miterlimit:22.9256}
    .fil0 {fill:none}
    .fil1 {fill:#3D3F8F}
    .fil2 {fill:#3D3F8F;fill-rule:nonzero}
   ]]>
  </style>
 </defs>
 <g id="Layer_x0020_1">
  <metadata id="CorelCorpID_0Corel-Layer"/>
  <circle class="fil0 str0" cx="17.26" cy="17.26" r="16.86"/>
  <g id="_2025553337984">
   <polygon class="fil1" points="7.92,15.7 7.92,25.93 13.7,24.15 13.7,13.92 "/>
   <path class="fil1" d="M20.81 26.37l5.34 -1.78 0.44 -10.22c-4.4,0.09 -5.89,1.93 -5.86,4.88l0.08 7.12z"/>
   <path class="fil1" d="M19.92 18.37l-1.24 0.98c-0.98,-1.4 -2.49,-3.64 -4.09,-5.43l0 10.23 5.33 1.78 0 -7.56z"/>
   <line class="fil1" x1="19.48" y1="18.37" x2="19.48" y2= "18.37" />
  </g>
  <g id="Location_x0020_pin.eps">
   <path class="fil2" d="M18.63 13.22c-1.04,0 -1.88,-0.84 -1.88,-1.88 0,-1.03 0.84,-1.88 1.88,-1.88 1.03,0 1.87,0.85 1.87,1.88 0,1.04 -0.84,1.88 -1.87,1.88zm0 -5.61c-2.06,0 -3.74,1.67 -3.74,3.73 0,2.56 3.34,6.31 3.49,6.46 0.13,0.15 0.36,0.15 0.5,0 0.14,-0.15 3.48,-3.9 3.48,-6.46 0,-2.06 -1.68,-3.73 -3.73,-3.73z"/>
  </g>
 </g>
</svg>
