<?xml version="1.0" encoding="UTF-8"?>
<!DOCTYPE svg PUBLIC "-//W3C//DTD SVG 1.1//EN" "http://www.w3.org/Graphics/SVG/1.1/DTD/svg11.dtd">
<!-- Creator: CorelDRAW 2020 (64-Bit) -->
<svg xmlns="http://www.w3.org/2000/svg" xml:space="preserve" width="156px" height="156px" version="1.1" style="shape-rendering:geometricPrecision; text-rendering:geometricPrecision; image-rendering:optimizeQuality; fill-rule:evenodd; clip-rule:evenodd"
viewBox="0 0 34.51 34.51"
 xmlns:xlink="http://www.w3.org/1999/xlink"
 xmlns:xodm="http://www.corel.com/coreldraw/odm/2003">
 <defs>
  <style type="text/css">
   <![CDATA[
    .str0 {stroke:#7975B4;stroke-width:0.79;stroke-miterlimit:22.9256}
    .str1 {stroke:#3D3F8F;stroke-width:0.22;stroke-miterlimit:22.9256}
    .fil0 {fill:none}
    .fil1 {fill:none;fill-rule:nonzero}
    .fil2 {fill:#3D3F8F;fill-rule:nonzero}
   ]]>
  </style>
 </defs>
 <g id="Layer_x0020_1">
  <metadata id="CorelCorpID_0Corel-Layer"/>
  <circle class="fil0 str0" cx="17.26" cy="17.26" r="16.86"/>
  <g id="_2025772685280">
   <path class="fil1 str1" d="M28.64 12.99l-0.8 -1.18c-0.08,-0.12 -0.21,-0.18 -0.35,-0.18l-1.54 0.04c-0.14,0 -0.26,0.07 -0.34,0.18l-0.15 0.24 -1.61 1.03c-0.1,0.06 -0.17,0.18 -0.19,0.3l-0.03 0.38 -0.62 0 -1.23 -1c-0.1,-0.08 -0.23,-0.11 -0.35,-0.08 -0.12,0.03 -0.23,0.11 -0.28,0.23l-0.51 1.1 -4.88 -2.08 0.28 -1.07c0.05,-0.21 -0.06,-0.42 -0.26,-0.49l-0.41 -0.14 -0.67 -1.02 0.1 -0.02c0.12,-0.03 0.23,-0.12 0.28,-0.24 0.05,-0.12 0.04,-0.25 -0.02,-0.37l-0.23 -0.4 0.88 -1.81c0.09,-0.19 0.02,-0.42 -0.16,-0.53l-0.79 -0.48c-0.07,-0.04 -0.15,-0.06 -0.23,-0.06l-1.69 0.09 -2.11 -0.92c-0.05,-0.02 -0.11,-0.04 -0.17,-0.04l0 0c-0.07,0 -0.14,0.02 -0.21,0.06l-1.13 0.68c-0.12,0.07 -0.19,0.19 -0.2,0.32 -0.01,0.13 0.04,0.26 0.14,0.34l0.63 0.56 0.03 1.41c0.01,0.1 0.05,0.19 0.11,0.26l1.04 1.14 -0.86 1.55c-0.03,0.06 -0.05,0.13 -0.05,0.19l0 0.18 -1.52 1.66 -0.77 -0.24c-0.21,-0.07 -0.44,0.04 -0.51,0.26l-0.43 1.24c-0.05,0.16 0,0.35 0.14,0.46l0.22 0.16 0.55 1.14 0.01 0.25 -1.68 0.6c-0.15,0.05 -0.26,0.2 -0.27,0.36 0,0.01 0,0.02 0,0.02 0,0.16 0.09,0.3 0.23,0.37l0.51 0.25c-0.07,0.06 -0.13,0.13 -0.15,0.22 -0.04,0.12 -0.02,0.25 0.05,0.35l0.63 0.93c0.04,0.06 0.09,0.11 0.16,0.14l1.01 0.5c0.18,0.09 0.39,0.04 0.51,-0.12l0.45 -0.58 0.24 0.57 -0.15 0.76c-0.01,0.07 0,0.15 0.02,0.22l3.37 9.09c0.06,0.16 0.21,0.27 0.38,0.27l0 0c0.05,0 0.1,-0.01 0.15,-0.03l0.82 -0.31c0.1,-0.04 0.18,-0.11 0.22,-0.2l0.18 -0.36 0.28 -0.34 0.71 -0.84c0.04,-0.06 0.08,-0.13 0.09,-0.2l0.37 -2.09c0.01,-0.07 0.01,-0.14 -0.01,-0.2l-0.2 -0.59 0.37 -1.14 0.32 -0.19 0.39 -0.05c0.11,-0.01 0.21,-0.07 0.28,-0.16l0.49 -0.66c0.16,-0.07 0.35,-0.12 0.49,-0.25 0.15,-0.14 0.3,-0.3 0.45,-0.45 0.12,-0.12 0.24,-0.22 0.3,-0.38 0.08,-0.18 0.15,-0.36 0.23,-0.54l1.46 -0.8c0.11,-0.06 0.19,-0.18 0.21,-0.31l0.07 -0.58 0.54 -0.41 0.74 0.14c0.14,0.03 0.28,-0.02 0.38,-0.12 0.09,-0.11 0.13,-0.25 0.09,-0.39l-0.69 -2.56 0.85 -0.36 0.59 0.38c0.06,0.04 0.12,0.06 0.18,0.07l0.44 0.05 -0.49 0.72c-0.09,0.13 -0.1,0.29 -0.02,0.43 0.08,0.13 0.22,0.22 0.38,0.21l0.32 -0.02 0.74 1.02c0.1,0.13 0.27,0.19 0.43,0.15 0.16,-0.04 0.28,-0.17 0.31,-0.33l0.2 -1.28 0.35 0.07c0.11,0.02 0.22,0 0.31,-0.07 0.09,-0.06 0.15,-0.16 0.17,-0.27l0.22 -1.4 0.2 -0.26c0.05,-0.06 0.07,-0.13 0.08,-0.2l0.04 -0.25 1.2 -0.42c0.14,-0.04 0.24,-0.16 0.27,-0.3l0.14 -0.67c0.01,-0.03 0.01,-0.05 0.01,-0.08l0 -0.01c0,-0.08 -0.02,-0.16 -0.07,-0.22z"/>
   <g id="location-pin.eps">
    <path class="fil2" d="M12.35 6.45c-0.55,0 -1,0.45 -1,1 0,0.22 0.14,0.59 0.43,1.11 0.21,0.37 0.41,0.68 0.42,0.69l0.15 0.23 0.15 -0.23c0.01,-0.01 0.21,-0.32 0.42,-0.69 0.29,-0.52 0.43,-0.89 0.43,-1.11 0,-0.55 -0.45,-1 -1,-1zm0 1.51c-0.29,0 -0.52,-0.23 -0.52,-0.52 0,-0.28 0.23,-0.52 0.52,-0.52 0.29,0 0.52,0.24 0.52,0.52 0,0.29 -0.23,0.52 -0.52,0.52z"/>
   </g>
   <g id="location-pin.eps_0">
    <path class="fil2" d="M13.95 21.18c-0.45,0 -0.82,0.36 -0.82,0.81 0,0.18 0.11,0.48 0.35,0.91 0.17,0.3 0.34,0.55 0.34,0.56l0.13 0.19 0.12 -0.19c0,-0.01 0.17,-0.26 0.34,-0.56 0.24,-0.43 0.35,-0.73 0.35,-0.91 0,-0.45 -0.36,-0.81 -0.81,-0.81zm0 1.23c-0.24,0 -0.43,-0.19 -0.43,-0.42 0,-0.24 0.19,-0.43 0.43,-0.43 0.23,0 0.42,0.19 0.42,0.43 0,0.23 -0.19,0.42 -0.42,0.42z"/>
   </g>
   <g id="location-pin.eps_1">
    <path class="fil2" d="M25.09 14.17c-0.45,0 -0.81,0.37 -0.81,0.82 0,0.18 0.11,0.48 0.35,0.91 0.17,0.3 0.33,0.55 0.34,0.56l0.12 0.19 0.12 -0.19c0.01,-0.01 0.18,-0.26 0.35,-0.56 0.23,-0.43 0.35,-0.73 0.35,-0.91 0,-0.45 -0.37,-0.82 -0.82,-0.82zm0 1.24c-0.23,0 -0.42,-0.19 -0.42,-0.42 0,-0.24 0.19,-0.43 0.42,-0.43 0.24,0 0.43,0.19 0.43,0.43 0,0.23 -0.19,0.42 -0.43,0.42z"/>
   </g>
   <g id="location-pin.eps_2">
    <path class="fil2" d="M9.04 13.25c-0.41,0 -0.74,0.34 -0.74,0.75 0,0.16 0.1,0.43 0.32,0.82 0.15,0.27 0.3,0.5 0.31,0.51l0.11 0.17 0.11 -0.17c0.01,-0.01 0.16,-0.24 0.31,-0.51 0.22,-0.39 0.32,-0.66 0.32,-0.82 0,-0.41 -0.33,-0.75 -0.74,-0.75zm0 1.13c-0.21,0 -0.38,-0.18 -0.38,-0.39 0,-0.21 0.17,-0.39 0.38,-0.39 0.21,0 0.39,0.18 0.39,0.39 0,0.21 -0.18,0.39 -0.39,0.39z"/>
   </g>
   <g id="location-pin.eps_3">
    <path class="fil2" d="M8.08 17.04c-0.41,0 -0.75,0.34 -0.75,0.75 0,0.16 0.11,0.43 0.32,0.82 0.16,0.27 0.31,0.5 0.32,0.51l0.11 0.17 0.11 -0.17c0,-0.01 0.15,-0.24 0.31,-0.51 0.21,-0.39 0.32,-0.66 0.32,-0.82 0,-0.41 -0.33,-0.75 -0.74,-0.75zm0 1.13c-0.22,0 -0.39,-0.18 -0.39,-0.39 0,-0.21 0.17,-0.39 0.39,-0.39 0.21,0 0.38,0.18 0.38,0.39 0,0.21 -0.17,0.39 -0.38,0.39z"/>
   </g>
   <g id="location-pin.eps_4">
    <path class="fil2" d="M11.2 18.8c-0.45,0 -0.82,0.36 -0.82,0.81 0,0.19 0.12,0.48 0.35,0.91 0.17,0.3 0.34,0.55 0.35,0.56l0.12 0.19 0.12 -0.19c0.01,-0.01 0.17,-0.26 0.34,-0.56 0.24,-0.43 0.35,-0.72 0.35,-0.91 0,-0.45 -0.36,-0.81 -0.81,-0.81zm0 1.23c-0.24,0 -0.43,-0.19 -0.43,-0.42 0,-0.23 0.19,-0.42 0.43,-0.42 0.23,0 0.42,0.19 0.42,0.42 0,0.23 -0.19,0.42 -0.42,0.42z"/>
   </g>
   <g id="location-pin.eps_5">
    <path class="fil2" d="M13.35 15.53c-0.45,0 -0.82,0.36 -0.82,0.82 0,0.18 0.12,0.47 0.36,0.9 0.17,0.3 0.33,0.55 0.34,0.57l0.12 0.18 0.12 -0.18c0.01,-0.02 0.18,-0.27 0.35,-0.57 0.23,-0.43 0.35,-0.72 0.35,-0.9 0,-0.46 -0.37,-0.82 -0.82,-0.82zm0 1.23c-0.23,0 -0.42,-0.19 -0.42,-0.42 0,-0.23 0.19,-0.42 0.42,-0.42 0.24,0 0.43,0.19 0.43,0.42 0,0.23 -0.19,0.42 -0.43,0.42z"/>
   </g>
   <g id="location-pin.eps_6">
    <path class="fil2" d="M11.94 11.96c-0.45,0 -0.82,0.37 -0.82,0.82 0,0.18 0.12,0.48 0.36,0.9 0.17,0.31 0.33,0.56 0.34,0.57l0.12 0.18 0.12 -0.18c0.01,-0.01 0.17,-0.26 0.34,-0.57 0.24,-0.42 0.36,-0.72 0.36,-0.9 0,-0.45 -0.37,-0.82 -0.82,-0.82zm0 1.24c-0.23,0 -0.42,-0.19 -0.42,-0.43 0,-0.23 0.19,-0.42 0.42,-0.42 0.23,0 0.42,0.19 0.42,0.42 0,0.24 -0.19,0.43 -0.42,0.43z"/>
   </g>
   <g id="location-pin.eps_7">
    <path class="fil2" d="M15.36 14.04c-0.45,0 -0.82,0.37 -0.82,0.82 0,0.18 0.12,0.48 0.36,0.9 0.16,0.31 0.33,0.56 0.34,0.57l0.12 0.18 0.12 -0.18c0.01,-0.01 0.17,-0.26 0.34,-0.57 0.24,-0.42 0.36,-0.72 0.36,-0.9 0,-0.45 -0.37,-0.82 -0.82,-0.82zm0 1.24c-0.24,0 -0.43,-0.19 -0.43,-0.43 0,-0.23 0.19,-0.42 0.43,-0.42 0.23,0 0.42,0.19 0.42,0.42 0,0.24 -0.19,0.43 -0.42,0.43z"/>
   </g>
   <g id="location-pin.eps_8">
    <path class="fil2" d="M16.99 15.6c-0.45,0 -0.81,0.37 -0.81,0.82 0,0.18 0.11,0.48 0.35,0.9 0.17,0.31 0.33,0.56 0.34,0.57l0.12 0.18 0.12 -0.18c0.01,-0.01 0.18,-0.26 0.35,-0.57 0.23,-0.42 0.35,-0.72 0.35,-0.9 0,-0.45 -0.37,-0.82 -0.82,-0.82zm0 1.24c-0.23,0 -0.42,-0.19 -0.42,-0.43 0,-0.23 0.19,-0.42 0.42,-0.42 0.24,0 0.43,0.19 0.43,0.42 0,0.24 -0.19,0.43 -0.43,0.43z"/>
   </g>
   <g id="location-pin.eps_9">
    <path class="fil2" d="M14.54 17.61c-0.45,0 -0.82,0.37 -0.82,0.82 0,0.18 0.12,0.47 0.36,0.9 0.17,0.3 0.33,0.56 0.34,0.57l0.12 0.18 0.12 -0.18c0.01,-0.01 0.18,-0.27 0.34,-0.57 0.24,-0.43 0.36,-0.72 0.36,-0.9 0,-0.45 -0.37,-0.82 -0.82,-0.82zm0 1.23c-0.23,0 -0.42,-0.19 -0.42,-0.42 0,-0.23 0.19,-0.42 0.42,-0.42 0.23,0 0.42,0.19 0.42,0.42 0,0.23 -0.19,0.42 -0.42,0.42z"/>
   </g>
   <g id="location-pin.eps_10">
    <path class="fil2" d="M16.4 19.39c-0.45,0 -0.82,0.37 -0.82,0.82 0,0.18 0.12,0.48 0.36,0.9 0.16,0.31 0.33,0.56 0.34,0.57l0.12 0.18 0.12 -0.18c0.01,-0.01 0.17,-0.26 0.34,-0.57 0.24,-0.42 0.36,-0.72 0.36,-0.9 0,-0.45 -0.37,-0.82 -0.82,-0.82zm0 1.24c-0.24,0 -0.42,-0.19 -0.42,-0.43 0,-0.23 0.18,-0.42 0.42,-0.42 0.23,0 0.42,0.19 0.42,0.42 0,0.24 -0.19,0.43 -0.42,0.43z"/>
   </g>
   <g id="location-pin.eps_11">
    <path class="fil2" d="M19.52 14.93c-0.45,0 -0.82,0.37 -0.82,0.82 0,0.18 0.12,0.48 0.36,0.91 0.17,0.3 0.33,0.55 0.34,0.56l0.12 0.18 0.12 -0.18c0.01,-0.01 0.17,-0.26 0.34,-0.56 0.24,-0.43 0.36,-0.73 0.36,-0.91 0,-0.45 -0.37,-0.82 -0.82,-0.82zm0 1.24c-0.23,0 -0.42,-0.19 -0.42,-0.42 0,-0.24 0.19,-0.43 0.42,-0.43 0.23,0 0.42,0.19 0.42,0.43 0,0.23 -0.19,0.42 -0.42,0.42z"/>
   </g>
   <g id="location-pin.eps_12">
    <path class="fil2" d="M13.43 26.45c-0.45,0 -0.82,0.37 -0.82,0.82 0,0.18 0.11,0.48 0.35,0.9 0.17,0.31 0.34,0.56 0.34,0.57l0.13 0.18 0.12 -0.18c0,-0.01 0.17,-0.26 0.34,-0.57 0.24,-0.42 0.35,-0.72 0.35,-0.9 0,-0.45 -0.36,-0.82 -0.81,-0.82zm0 1.24c-0.24,0 -0.43,-0.19 -0.43,-0.43 0,-0.23 0.19,-0.42 0.43,-0.42 0.23,0 0.42,0.19 0.42,0.42 0,0.24 -0.19,0.43 -0.42,0.43z"/>
   </g>
   <g id="location-pin.eps_13">
    <path class="fil2" d="M12.16 23.33c-0.45,0 -0.81,0.37 -0.81,0.82 0,0.18 0.11,0.48 0.35,0.9 0.17,0.31 0.33,0.56 0.34,0.57l0.12 0.18 0.12 -0.18c0.01,-0.01 0.18,-0.26 0.35,-0.57 0.23,-0.42 0.35,-0.72 0.35,-0.9 0,-0.45 -0.37,-0.82 -0.82,-0.82zm0 1.24c-0.23,0 -0.42,-0.19 -0.42,-0.43 0,-0.23 0.19,-0.42 0.42,-0.42 0.24,0 0.43,0.19 0.43,0.42 0,0.24 -0.19,0.43 -0.43,0.43z"/>
   </g>
   <g id="location-pin.eps_14">
    <path class="fil2" d="M10.75 14.71c-0.45,0 -0.82,0.37 -0.82,0.82 0,0.18 0.12,0.48 0.36,0.9 0.17,0.3 0.33,0.56 0.34,0.57l0.12 0.18 0.12 -0.18c0.01,-0.01 0.18,-0.27 0.34,-0.57 0.24,-0.42 0.36,-0.72 0.36,-0.9 0,-0.45 -0.37,-0.82 -0.82,-0.82zm0 1.24c-0.23,0 -0.42,-0.19 -0.42,-0.43 0,-0.23 0.19,-0.42 0.42,-0.42 0.23,0 0.42,0.19 0.42,0.42 0,0.24 -0.19,0.43 -0.42,0.43z"/>
   </g>
   <g id="location-pin.eps_15">
    <path class="fil2" d="M14.24 10.85c-0.45,0 -0.81,0.36 -0.81,0.81 0,0.19 0.11,0.48 0.35,0.91 0.17,0.3 0.34,0.55 0.34,0.56l0.12 0.19 0.13 -0.19c0,-0.01 0.17,-0.26 0.34,-0.56 0.24,-0.43 0.35,-0.72 0.35,-0.91 0,-0.45 -0.37,-0.81 -0.82,-0.81zm0 1.23c-0.23,0 -0.42,-0.19 -0.42,-0.42 0,-0.24 0.19,-0.43 0.42,-0.43 0.24,0 0.43,0.19 0.43,0.43 0,0.23 -0.19,0.42 -0.43,0.42z"/>
   </g>
   <g id="location-pin.eps_16">
    <path class="fil2" d="M18.63 17.91c-0.45,0 -0.82,0.36 -0.82,0.81 0,0.18 0.12,0.48 0.35,0.91 0.17,0.3 0.34,0.55 0.35,0.56l0.12 0.19 0.12 -0.19c0.01,-0.01 0.17,-0.26 0.34,-0.56 0.24,-0.43 0.36,-0.73 0.36,-0.91 0,-0.45 -0.37,-0.81 -0.82,-0.81zm0 1.23c-0.24,0 -0.43,-0.19 -0.43,-0.42 0,-0.24 0.19,-0.43 0.43,-0.43 0.23,0 0.42,0.19 0.42,0.43 0,0.23 -0.19,0.42 -0.42,0.42z"/>
   </g>
  </g>
 </g>
</svg>
