<?xml version="1.0" encoding="UTF-8"?>
<!DOCTYPE svg PUBLIC "-//W3C//DTD SVG 1.1//EN" "http://www.w3.org/Graphics/SVG/1.1/DTD/svg11.dtd">
<!-- Creator: CorelDRAW 2020 (64-Bit) -->
<svg xmlns="http://www.w3.org/2000/svg" xml:space="preserve" width="156px" height="156px" version="1.1" style="shape-rendering:geometricPrecision; text-rendering:geometricPrecision; image-rendering:optimizeQuality; fill-rule:evenodd; clip-rule:evenodd"
viewBox="0 0 34.34 34.34"
 xmlns:xlink="http://www.w3.org/1999/xlink"
 xmlns:xodm="http://www.corel.com/coreldraw/odm/2003">
 <defs>
  <style type="text/css">
   <![CDATA[
    .str0 {stroke:#7975B4;stroke-width:0.79;stroke-miterlimit:22.9256}
    .fil0 {fill:none}
    .fil1 {fill:#3D3F8F;fill-rule:nonzero}
   ]]>
  </style>
 </defs>
 <g id="Layer_x0020_1">
  <metadata id="CorelCorpID_0Corel-Layer"/>
  <circle class="fil0 str0" cx="17.17" cy="17.17" r="16.77"/>
  <g id="Area.eps">
   <path class="fil1" d="M26.72 10.34c0.21,0 0.39,-0.18 0.39,-0.39l0 -2.33c0,-0.21 -0.18,-0.39 -0.39,-0.39l-2.33 0c-0.22,0 -0.39,0.18 -0.39,0.39l0 0.78 -5.26 0 0 -0.78c0,-0.21 -0.17,-0.39 -0.39,-0.39l-2.33 0c-0.21,0 -0.39,0.18 -0.39,0.39l0 0.78 -5.29 0 0 -0.78c0,-0.21 -0.18,-0.39 -0.39,-0.39l-2.33 0c-0.21,0 -0.39,0.18 -0.39,0.39l0 2.33c0,0.21 0.18,0.39 0.39,0.39l0.78 0 0 5.26 -0.78 0c-0.21,0 -0.39,0.17 -0.39,0.39l0 2.33c0,0.21 0.18,0.38 0.39,0.38l0.78 0 0 5.3 -0.78 0c-0.21,0 -0.39,0.17 -0.39,0.39l0 2.33c0,0.21 0.18,0.39 0.39,0.39l2.33 0c0.21,0 0.39,-0.18 0.39,-0.39l0 -0.78 5.29 0 0 0.78c0,0.21 0.18,0.39 0.39,0.39l2.33 0c0.22,0 0.39,-0.18 0.39,-0.39l0 -0.78 1.27 0c0.21,0 0.39,-0.17 0.39,-0.39 0,-0.21 -0.18,-0.39 -0.39,-0.39l-1.27 0 0 -0.77c0,-0.22 -0.17,-0.39 -0.39,-0.39l-2.33 0c-0.21,0 -0.39,0.17 -0.39,0.39l0 0.77 -5.29 0 0 -0.77c0,-0.22 -0.18,-0.39 -0.39,-0.39l-0.78 0 0 -5.3 0.78 0c0.21,0 0.39,-0.17 0.39,-0.38l0 -2.33c0,-0.22 -0.18,-0.39 -0.39,-0.39l-0.78 0 0 -5.26 0.78 0c0.21,0 0.39,-0.18 0.39,-0.39l0 -0.78 5.29 0 0 0.78c0,0.21 0.18,0.39 0.39,0.39l2.33 0c0.22,0 0.39,-0.18 0.39,-0.39l0 -0.78 5.26 0 0 0.78c0,0.21 0.17,0.39 0.39,0.39l0.77 0 0 5.26 -0.77 0c-0.22,0 -0.39,0.17 -0.39,0.39l0 2.33c0,0.21 0.17,0.38 0.39,0.38l0.77 0 0 5.3 -0.77 0c-0.22,0 -0.39,0.17 -0.39,0.39l0 0.77 -1.27 0c-0.21,0 -0.39,0.18 -0.39,0.39 0,0.22 0.18,0.39 0.39,0.39l1.27 0 0 0.78c0,0.21 0.17,0.39 0.39,0.39l2.33 0c0.21,0 0.39,-0.18 0.39,-0.39l0 -2.33c0,-0.22 -0.18,-0.39 -0.39,-0.39l-0.78 0 0 -5.3 0.78 0c0.21,0 0.39,-0.17 0.39,-0.38l0 -2.33c0,-0.22 -0.18,-0.39 -0.39,-0.39l-0.78 0 0 -5.26 0.78 0zm-10.31 14.44l1.55 0 0 1.55 -1.55 0 0 -1.55zm-6.85 0l0 1.55 -1.55 0 0 -1.55 1.55 0zm0 -8.41l0 1.56 -1.55 0 0 -1.56 1.55 0zm0 -6.81l-1.55 0 0 -1.55 1.55 0 0 1.55zm8.4 0l-1.55 0 0 -1.55 1.55 0 0 1.55zm8.37 15.22l0 1.55 -1.55 0 0 -1.55 1.55 0zm0 -8.41l0 1.56 -1.55 0 0 -1.56 1.55 0zm-1.55 -6.81l0 -1.55 1.55 0 0 1.55 -1.55 0z"/>
   <path class="fil1" d="M21.37 25.94c-0.21,0 -0.39,-0.17 -0.39,-0.39 0,-0.21 0.18,-0.39 0.39,-0.39l0 0c0.22,0 0.39,0.18 0.39,0.39 0,0.22 -0.17,0.39 -0.39,0.39z"/>
   <path class="fil1" d="M22.42 15.7c-0.14,-0.06 -0.31,-0.02 -0.42,0.09l-1.4 1.39 0 -3.95c0,-0.22 -0.17,-0.39 -0.38,-0.39l-5.83 0c-0.21,0 -0.38,0.17 -0.38,0.39l0 2.55c-1.32,0.19 -2.33,1.32 -2.33,2.69 0,1.5 1.22,2.72 2.71,2.72 1.14,0 2.15,-0.71 2.54,-1.75l1.42 0 -1.4 1.39c-0.11,0.12 -0.14,0.28 -0.08,0.43 0.06,0.14 0.2,0.24 0.36,0.24l5.04 0c0.22,0 0.39,-0.18 0.39,-0.39l0 -5.05c0,-0.15 -0.09,-0.3 -0.24,-0.36 -0.14,-0.06 0.15,0.06 0,0zm-6.12 3.14c-0.01,0.04 -0.02,0.08 -0.03,0.11 0,0.01 0,0.01 0,0.01 -0.22,0.85 -0.99,1.45 -1.88,1.45 -1.07,0 -1.94,-0.87 -1.94,-1.94 0,-1.07 0.87,-1.94 1.94,-1.94 1.07,0 1.94,0.87 1.94,1.94 0,0.12 -0.01,0.24 -0.03,0.37 -0.01,0.04 0.02,-0.13 0,0zm0.8 -0.18c0.11,-1.38 -0.93,-2.7 -2.32,-2.88l0 -2.16 5.05 0 0 4.34 -0.71 0.7 -2.02 0zm4.79 2.06l-3.73 0 3.73 -3.72 0 3.72z"/>
  </g>
 </g>
</svg>
