<?xml version="1.0" encoding="UTF-8"?>
<!DOCTYPE svg PUBLIC "-//W3C//DTD SVG 1.1//EN" "http://www.w3.org/Graphics/SVG/1.1/DTD/svg11.dtd">
<!-- Creator: CorelDRAW 2020 (64-Bit) -->
<svg xmlns="http://www.w3.org/2000/svg" xml:space="preserve" width="156px" height="156px" version="1.1" style="shape-rendering:geometricPrecision; text-rendering:geometricPrecision; image-rendering:optimizeQuality; fill-rule:evenodd; clip-rule:evenodd"
viewBox="0 0 34.51 34.51"
 xmlns:xlink="http://www.w3.org/1999/xlink"
 xmlns:xodm="http://www.corel.com/coreldraw/odm/2003">
 <defs>
  <style type="text/css">
   <![CDATA[
    .str0 {stroke:#7975B4;stroke-width:0.79;stroke-miterlimit:22.9256}
    .fil0 {fill:none}
    .fil1 {fill:#3D3F8F;fill-rule:nonzero}
   ]]>
  </style>
 </defs>
 <g id="Layer_x0020_1">
  <metadata id="CorelCorpID_0Corel-Layer"/>
  <circle class="fil0 str0" cx="17.26" cy="17.26" r="16.86"/>
  <path class="fil1" d="M24.52 11.02l-2.16 0 0 -0.27c0,-0.45 0.37,-0.81 0.81,-0.81l0.54 0c0.45,0 0.81,0.36 0.81,0.81l0 0.27zm-1.08 -2.7c0.3,0 0.54,0.24 0.54,0.54 0,0.3 -0.24,0.54 -0.54,0.54 -0.29,0 -0.54,-0.24 -0.54,-0.54 0,-0.3 0.25,-0.54 0.54,-0.54zm0.84 1.21c0.15,-0.18 0.24,-0.41 0.24,-0.67 0,-0.59 -0.48,-1.08 -1.08,-1.08 -0.59,0 -1.08,0.49 -1.08,1.08 0,0.26 0.1,0.49 0.24,0.67 -0.45,0.22 -0.78,0.68 -0.78,1.22l0 0.54c0,0.15 0.13,0.27 0.27,0.27l2.7 0c0.15,0 0.27,-0.12 0.27,-0.27l0 -0.54c0,-0.54 -0.32,-1 -0.78,-1.22z"/>
  <path class="fil1" d="M15.89 12.37c0,-0.45 0.36,-0.81 0.81,-0.81l0.54 0c0.45,0 0.81,0.36 0.81,0.81l0 0.27 -2.16 0 0 -0.27zm1.08 -2.43c0.3,0 0.54,0.24 0.54,0.54 0,0.3 -0.24,0.54 -0.54,0.54 -0.3,0 -0.54,-0.24 -0.54,-0.54 0,-0.3 0.24,-0.54 0.54,-0.54zm2.16 2.43c0.3,0 0.54,0.24 0.54,0.54 0,0.3 -0.24,0.54 -0.54,0.54 -0.3,0 -0.54,-0.24 -0.54,-0.54 0,-0.3 0.24,-0.54 0.54,-0.54zm1.08 2.43l0 0.27 -2.16 0 0 -0.27c0,-0.45 0.36,-0.81 0.81,-0.81l0.54 0c0.44,0 0.81,0.36 0.81,0.81zm1.08 0c0.29,0 0.53,0.24 0.53,0.54 0,0.29 -0.24,0.53 -0.53,0.53 -0.3,0 -0.54,-0.24 -0.54,-0.53 0,-0.3 0.24,-0.54 0.54,-0.54zm1.07 2.42l0 0.27 -2.15 0 0 -0.27c0,-0.44 0.36,-0.81 0.81,-0.81l0.54 0c0.44,0 0.8,0.37 0.8,0.81zm-7.01 -4.85l0 0.54c0,0.15 0.12,0.27 0.27,0.27l2.47 0c0.04,0.15 0.11,0.28 0.2,0.4 -0.46,0.21 -0.78,0.68 -0.78,1.22l0 0.54c0,0.14 0.12,0.27 0.27,0.27l2.46 0c0.04,0.14 0.11,0.28 0.21,0.4 -0.46,0.21 -0.78,0.67 -0.78,1.21l0 0.54c0,0.15 0.12,0.27 0.27,0.27l2.69 0c0.15,0 0.27,-0.12 0.27,-0.27l0 -0.54c0,-0.54 -0.32,-1 -0.78,-1.21 0.15,-0.19 0.24,-0.42 0.24,-0.67 0,-0.6 -0.48,-1.08 -1.07,-1.08 -0.22,0 -0.43,0.06 -0.6,0.18 -0.1,-0.38 -0.37,-0.7 -0.72,-0.86 0.14,-0.19 0.24,-0.42 0.24,-0.67 0,-0.6 -0.49,-1.08 -1.08,-1.08 -0.22,0 -0.43,0.07 -0.6,0.18 -0.1,-0.38 -0.37,-0.69 -0.72,-0.86 0.15,-0.18 0.24,-0.42 0.24,-0.67 0,-0.59 -0.49,-1.08 -1.08,-1.08 -0.6,0 -1.08,0.49 -1.08,1.08 0,0.25 0.09,0.49 0.24,0.67 -0.46,0.22 -0.78,0.68 -0.78,1.22z"/>
  <polygon class="fil1" points="20.56,11.91 21.09,11.37 21.48,11.75 20.94,12.29 "/>
  <polygon class="fil1" points="22.9,13.99 23.44,13.99 23.44,13.18 22.9,13.18 "/>
  <polygon class="fil1" points="18.86,9.94 19.67,9.94 19.67,9.4 18.86,9.4 "/>
  <polygon class="fil1" points="16.24,16.22 16.78,15.68 17.16,16.07 16.62,16.61 "/>
  <polygon class="fil1" points="18.59,18.3 19.13,18.3 19.13,17.49 18.59,17.49 "/>
  <polygon class="fil1" points="14.54,14.26 15.35,14.26 15.35,13.72 14.54,13.72 "/>
  <path class="fil1" d="M9.42 22.62c0,-0.45 0.36,-0.81 0.81,-0.81l0.54 0c0.44,0 0.8,0.36 0.8,0.81l0 0.27 -2.15 0 0 -0.27zm1.08 -2.43c0.29,0 0.54,0.24 0.54,0.54 0,0.3 -0.25,0.54 -0.54,0.54 -0.3,0 -0.54,-0.24 -0.54,-0.54 0,-0.3 0.24,-0.54 0.54,-0.54zm1.07 0.27c0,-0.45 0.37,-0.81 0.81,-0.81l0.54 0c0.45,0 0.81,0.36 0.81,0.81l0 0.27 -2.16 0 0 -0.27zm-2.15 -2.43c0,-0.44 0.36,-0.81 0.81,-0.81l0.54 0c0.44,0 0.8,0.37 0.8,0.81l0 0.27 -2.15 0 0 -0.27zm1.08 -2.42c0.29,0 0.54,0.24 0.54,0.53 0,0.3 -0.25,0.54 -0.54,0.54 -0.3,0 -0.54,-0.24 -0.54,-0.54 0,-0.29 0.24,-0.53 0.54,-0.53zm1.07 0c0,-0.45 0.37,-0.81 0.81,-0.81l0.54 0c0.45,0 0.81,0.36 0.81,0.81l0 0.26 -2.16 0 0 -0.26zm-2.15 -2.43c0,-0.45 0.36,-0.81 0.81,-0.81l0.54 0c0.44,0 0.8,0.36 0.8,0.81l0 0.27 -2.15 0 0 -0.27zm1.08 -2.43c0.29,0 0.54,0.24 0.54,0.54 0,0.3 -0.25,0.54 -0.54,0.54 -0.3,0 -0.54,-0.24 -0.54,-0.54 0,-0.3 0.24,-0.54 0.54,-0.54zm2.15 2.43c0.3,0 0.54,0.24 0.54,0.54 0,0.29 -0.24,0.54 -0.54,0.54 -0.29,0 -0.54,-0.25 -0.54,-0.54 0,-0.3 0.25,-0.54 0.54,-0.54zm2.16 2.43c0.3,0 0.54,0.24 0.54,0.53 0,0.3 -0.24,0.54 -0.54,0.54 -0.3,0 -0.54,-0.24 -0.54,-0.54 0,-0.29 0.24,-0.53 0.54,-0.53zm1.08 2.42l0 0.27 -2.16 0 0 -0.27c0,-0.44 0.37,-0.81 0.81,-0.81l0.54 0c0.45,0 0.81,0.37 0.81,0.81zm1.08 0c0.3,0 0.54,0.24 0.54,0.54 0,0.3 -0.24,0.54 -0.54,0.54 -0.3,0 -0.54,-0.24 -0.54,-0.54 0,-0.3 0.24,-0.54 0.54,-0.54zm1.08 2.43l0 0.27 -2.16 0 0 -0.27c0,-0.45 0.36,-0.81 0.81,-0.81l0.54 0c0.45,0 0.81,0.36 0.81,0.81zm1.08 0.27c0.3,0 0.54,0.24 0.54,0.54 0,0.3 -0.24,0.54 -0.54,0.54 -0.3,0 -0.54,-0.24 -0.54,-0.54 0,-0.3 0.24,-0.54 0.54,-0.54zm1.08 2.43l0 0.27 -2.16 0 0 -0.27c0,-0.45 0.36,-0.81 0.81,-0.81l0.54 0c0.44,0 0.81,0.36 0.81,0.81zm-4.32 -0.27l0 0.27 -2.16 0 0 -0.27c0,-0.45 0.37,-0.81 0.81,-0.81l0.54 0c0.45,0 0.81,0.36 0.81,0.81zm-1.08 -2.43c0.3,0 0.54,0.24 0.54,0.54 0,0.3 -0.24,0.54 -0.54,0.54 -0.3,0 -0.54,-0.24 -0.54,-0.54 0,-0.3 0.24,-0.54 0.54,-0.54zm-1.12 -1.62l2.24 0c0.04,0.15 0.11,0.29 0.2,0.4 -0.35,0.17 -0.62,0.48 -0.72,0.86 -0.17,-0.11 -0.38,-0.18 -0.6,-0.18 -0.22,0 -0.42,0.07 -0.59,0.18 -0.11,-0.38 -0.37,-0.69 -0.73,-0.86 0.1,-0.11 0.17,-0.25 0.2,-0.4zm-1.04 -0.81c0.3,0 0.54,0.24 0.54,0.54 0,0.3 -0.24,0.54 -0.54,0.54 -0.29,0 -0.54,-0.24 -0.54,-0.54 0,-0.3 0.25,-0.54 0.54,-0.54zm-1.11 -1.62l2.23 0c0.04,0.15 0.11,0.29 0.2,0.4 -0.35,0.17 -0.62,0.48 -0.72,0.86 -0.17,-0.11 -0.38,-0.18 -0.6,-0.18 -0.22,0 -0.42,0.07 -0.59,0.18 -0.11,-0.38 -0.37,-0.69 -0.72,-0.86 0.09,-0.11 0.16,-0.25 0.2,-0.4zm-2.39 7.02l2.69 0c0.15,0 0.27,-0.12 0.27,-0.27l0 -0.54c0,-0.54 -0.32,-1 -0.77,-1.22 0.03,-0.04 0.06,-0.08 0.09,-0.13l2.34 0c0.04,0.15 0.11,0.28 0.2,0.4 -0.46,0.22 -0.78,0.68 -0.78,1.22l0 0.54c0,0.15 0.12,0.27 0.27,0.27l2.7 0c0.15,0 0.27,-0.12 0.27,-0.27l0 -0.54c0,-0.54 -0.32,-1 -0.78,-1.22 0.09,-0.12 0.16,-0.25 0.2,-0.4l2.2 0c0,0.25 0.09,0.48 0.24,0.67 -0.46,0.22 -0.78,0.68 -0.78,1.22l0 0.54c0,0.15 0.12,0.27 0.27,0.27l2.7 0c0.15,0 0.27,-0.12 0.27,-0.27l0 -0.54c0,-0.54 -0.32,-1 -0.78,-1.22 0.14,-0.19 0.24,-0.42 0.24,-0.67 0,-0.6 -0.49,-1.08 -1.08,-1.08 -0.2,0 -0.39,0.06 -0.55,0.16 -0.05,-0.49 -0.35,-0.91 -0.77,-1.11 0.15,-0.18 0.24,-0.41 0.24,-0.67 0,-0.59 -0.49,-1.08 -1.08,-1.08 -0.22,0 -0.42,0.07 -0.59,0.18 -0.11,-0.38 -0.38,-0.69 -0.73,-0.86 0.15,-0.18 0.24,-0.41 0.24,-0.67 0,-0.59 -0.48,-1.07 -1.08,-1.07 -0.22,0 -0.42,0.06 -0.59,0.18 -0.11,-0.39 -0.37,-0.7 -0.73,-0.86 0.15,-0.19 0.24,-0.42 0.24,-0.67 0,-0.6 -0.48,-1.08 -1.08,-1.08 -0.22,0 -0.42,0.06 -0.59,0.18 -0.11,-0.38 -0.37,-0.7 -0.72,-0.86 0.14,-0.19 0.23,-0.42 0.23,-0.67 0,-0.6 -0.48,-1.08 -1.07,-1.08 -0.6,0 -1.08,0.48 -1.08,1.08 0,0.25 0.09,0.48 0.24,0.67 -0.46,0.22 -0.78,0.68 -0.78,1.22l0 0.54c0,0.15 0.12,0.27 0.27,0.27l2.46 0c0.04,0.15 0.11,0.28 0.2,0.4 -0.35,0.16 -0.61,0.47 -0.72,0.86 -0.17,-0.12 -0.37,-0.18 -0.59,-0.18 -0.6,0 -1.08,0.48 -1.08,1.07 0,0.26 0.09,0.49 0.24,0.67 -0.46,0.22 -0.78,0.68 -0.78,1.22l0 0.54c0,0.15 0.12,0.27 0.27,0.27l2.46 0c0.04,0.15 0.11,0.29 0.2,0.4 -0.28,0.14 -0.51,0.37 -0.64,0.65 -0.19,-0.15 -0.42,-0.24 -0.67,-0.24 -0.6,0 -1.08,0.49 -1.08,1.08 0,0.25 0.09,0.49 0.24,0.67 -0.46,0.22 -0.78,0.68 -0.78,1.22l0 0.54c0,0.15 0.12,0.27 0.27,0.27z"/>
  <path class="fil1" d="M26.82 15.49l-2.16 0 0 -0.27c0,-0.45 0.36,-0.81 0.81,-0.81l0.54 0c0.44,0 0.81,0.36 0.81,0.81l0 0.27zm-1.08 -2.7c0.3,0 0.54,0.24 0.54,0.54 0,0.3 -0.24,0.54 -0.54,0.54 -0.3,0 -0.54,-0.24 -0.54,-0.54 0,-0.3 0.24,-0.54 0.54,-0.54zm0.84 1.21c0.15,-0.18 0.24,-0.42 0.24,-0.67 0,-0.59 -0.49,-1.08 -1.08,-1.08 -0.6,0 -1.08,0.49 -1.08,1.08 0,0.25 0.09,0.49 0.24,0.67 -0.46,0.22 -0.78,0.68 -0.78,1.22l0 0.54c0,0.15 0.12,0.27 0.27,0.27l2.7 0c0.15,0 0.27,-0.12 0.27,-0.27l0 -0.54c0,-0.54 -0.32,-1 -0.78,-1.22z"/>
  <path class="fil1" d="M26.82 20.08l-2.16 0 0 -0.27c0,-0.45 0.36,-0.81 0.81,-0.81l0.54 0c0.44,0 0.81,0.36 0.81,0.81l0 0.27zm-1.08 -2.7c0.3,0 0.54,0.24 0.54,0.54 0,0.3 -0.24,0.54 -0.54,0.54 -0.3,0 -0.54,-0.24 -0.54,-0.54 0,-0.3 0.24,-0.54 0.54,-0.54zm0.84 1.21c0.15,-0.18 0.24,-0.42 0.24,-0.67 0,-0.59 -0.49,-1.08 -1.08,-1.08 -0.6,0 -1.08,0.49 -1.08,1.08 0,0.25 0.09,0.49 0.24,0.67 -0.46,0.22 -0.78,0.68 -0.78,1.22l0 0.54c0,0.15 0.12,0.27 0.27,0.27l2.7 0c0.15,0 0.27,-0.12 0.27,-0.27l0 -0.54c0,-0.54 -0.32,-1 -0.78,-1.22z"/>
  <path class="fil1" d="M23.8 22.49l-2.16 0 0 -0.27c0,-0.44 0.36,-0.81 0.81,-0.81l0.54 0c0.44,0 0.81,0.37 0.81,0.81l0 0.27zm-1.08 -2.69c0.3,0 0.54,0.24 0.54,0.54 0,0.29 -0.24,0.54 -0.54,0.54 -0.3,0 -0.54,-0.25 -0.54,-0.54 0,-0.3 0.24,-0.54 0.54,-0.54zm0.84 1.21c0.15,-0.19 0.24,-0.42 0.24,-0.67 0,-0.6 -0.49,-1.08 -1.08,-1.08 -0.6,0 -1.08,0.48 -1.08,1.08 0,0.25 0.09,0.48 0.24,0.67 -0.46,0.21 -0.78,0.67 -0.78,1.21l0 0.54c0,0.15 0.12,0.27 0.27,0.27l2.7 0c0.15,0 0.27,-0.12 0.27,-0.27l0 -0.54c0,-0.54 -0.32,-1 -0.78,-1.21z"/>
  <path class="fil1" d="M13.29 27.81l-2.16 0 0 -0.27c0,-0.45 0.37,-0.81 0.81,-0.81l0.54 0c0.45,0 0.81,0.36 0.81,0.81l0 0.27zm-1.08 -2.7c0.3,0 0.54,0.24 0.54,0.54 0,0.3 -0.24,0.54 -0.54,0.54 -0.3,0 -0.54,-0.24 -0.54,-0.54 0,-0.3 0.24,-0.54 0.54,-0.54zm0.84 1.21c0.15,-0.18 0.24,-0.42 0.24,-0.67 0,-0.6 -0.48,-1.08 -1.08,-1.08 -0.59,0 -1.08,0.48 -1.08,1.08 0,0.25 0.09,0.49 0.24,0.67 -0.46,0.22 -0.78,0.68 -0.78,1.22l0 0.54c0,0.15 0.12,0.27 0.27,0.27l2.7 0c0.15,0 0.27,-0.12 0.27,-0.27l0 -0.54c0,-0.54 -0.32,-1 -0.78,-1.22z"/>
  <path class="fil1" d="M18.12 27.81l-2.16 0 0 -0.27c0,-0.45 0.37,-0.81 0.81,-0.81l0.54 0c0.45,0 0.81,0.36 0.81,0.81l0 0.27zm-1.08 -2.7c0.3,0 0.54,0.24 0.54,0.54 0,0.3 -0.24,0.54 -0.54,0.54 -0.3,0 -0.54,-0.24 -0.54,-0.54 0,-0.3 0.24,-0.54 0.54,-0.54zm0.84 1.21c0.15,-0.18 0.24,-0.42 0.24,-0.67 0,-0.6 -0.48,-1.08 -1.08,-1.08 -0.59,0 -1.08,0.48 -1.08,1.08 0,0.25 0.1,0.49 0.24,0.67 -0.46,0.22 -0.78,0.68 -0.78,1.22l0 0.54c0,0.15 0.12,0.27 0.27,0.27l2.7 0c0.15,0 0.27,-0.12 0.27,-0.27l0 -0.54c0,-0.54 -0.32,-1 -0.78,-1.22z"/>
  <path class="fil1" d="M22.11 27.32l-2.16 0 0 -0.26c0,-0.45 0.36,-0.81 0.81,-0.81l0.54 0c0.44,0 0.81,0.36 0.81,0.81l0 0.26zm-1.08 -2.69c0.3,0 0.54,0.24 0.54,0.54 0,0.29 -0.24,0.54 -0.54,0.54 -0.3,0 -0.54,-0.25 -0.54,-0.54 0,-0.3 0.24,-0.54 0.54,-0.54zm0.84 1.21c0.14,-0.19 0.24,-0.42 0.24,-0.67 0,-0.6 -0.49,-1.08 -1.08,-1.08 -0.6,0 -1.08,0.48 -1.08,1.08 0,0.25 0.09,0.48 0.24,0.67 -0.46,0.21 -0.78,0.68 -0.78,1.22l0 0.53c0,0.15 0.12,0.27 0.27,0.27l2.7 0c0.15,0 0.27,-0.12 0.27,-0.27l0 -0.53c0,-0.54 -0.32,-1.01 -0.78,-1.22z"/>
  <path class="fil1" d="M25.85 26.48l-2.16 0 0 -0.27c0,-0.45 0.37,-0.81 0.81,-0.81l0.54 0c0.45,0 0.81,0.36 0.81,0.81l0 0.27zm-1.08 -2.7c0.3,0 0.54,0.24 0.54,0.54 0,0.3 -0.24,0.54 -0.54,0.54 -0.3,0 -0.54,-0.24 -0.54,-0.54 0,-0.3 0.24,-0.54 0.54,-0.54zm0.84 1.21c0.15,-0.18 0.24,-0.41 0.24,-0.67 0,-0.59 -0.48,-1.08 -1.08,-1.08 -0.59,0 -1.08,0.49 -1.08,1.08 0,0.26 0.1,0.49 0.24,0.67 -0.46,0.22 -0.78,0.68 -0.78,1.22l0 0.54c0,0.15 0.12,0.27 0.27,0.27l2.7 0c0.15,0 0.27,-0.12 0.27,-0.27l0 -0.54c0,-0.54 -0.32,-1 -0.78,-1.22z"/>
  <path class="fil1" d="M14.62 11.5l-2.16 0 0 -0.27c0,-0.44 0.36,-0.81 0.81,-0.81l0.54 0c0.45,0 0.81,0.37 0.81,0.81l0 0.27zm-1.08 -2.69c0.3,0 0.54,0.24 0.54,0.53 0,0.3 -0.24,0.54 -0.54,0.54 -0.3,0 -0.54,-0.24 -0.54,-0.54 0,-0.29 0.24,-0.53 0.54,-0.53zm0.84 1.2c0.15,-0.18 0.24,-0.41 0.24,-0.67 0,-0.59 -0.49,-1.07 -1.08,-1.07 -0.6,0 -1.08,0.48 -1.08,1.07 0,0.26 0.09,0.49 0.24,0.67 -0.46,0.22 -0.78,0.68 -0.78,1.22l0 0.54c0,0.15 0.12,0.27 0.27,0.27l2.7 0c0.15,0 0.27,-0.12 0.27,-0.27l0 -0.54c0,-0.54 -0.32,-1 -0.78,-1.22z"/>
  <path class="fil1" d="M17.4 7.64l-2.16 0 0 -0.27c0,-0.45 0.36,-0.81 0.81,-0.81l0.54 0c0.44,0 0.81,0.36 0.81,0.81l0 0.27zm-1.08 -2.7c0.29,0 0.54,0.24 0.54,0.54 0,0.3 -0.25,0.54 -0.54,0.54 -0.3,0 -0.54,-0.24 -0.54,-0.54 0,-0.3 0.24,-0.54 0.54,-0.54zm0.84 1.21c0.14,-0.18 0.24,-0.42 0.24,-0.67 0,-0.6 -0.49,-1.08 -1.08,-1.08 -0.6,0 -1.08,0.48 -1.08,1.08 0,0.25 0.09,0.49 0.24,0.67 -0.46,0.22 -0.78,0.68 -0.78,1.22l0 0.54c0,0.15 0.12,0.27 0.27,0.27l2.7 0c0.15,0 0.27,-0.12 0.27,-0.27l0 -0.54c0,-0.54 -0.32,-1 -0.78,-1.22z"/>
  <path class="fil1" d="M21.5 7.64l-2.15 0 0 -0.27c0,-0.45 0.36,-0.81 0.8,-0.81l0.54 0c0.45,0 0.81,0.36 0.81,0.81l0 0.27zm-1.08 -2.7c0.3,0 0.54,0.24 0.54,0.54 0,0.3 -0.24,0.54 -0.54,0.54 -0.29,0 -0.54,-0.24 -0.54,-0.54 0,-0.3 0.25,-0.54 0.54,-0.54zm0.84 1.21c0.15,-0.18 0.24,-0.42 0.24,-0.67 0,-0.6 -0.48,-1.08 -1.08,-1.08 -0.59,0 -1.07,0.48 -1.07,1.08 0,0.25 0.09,0.49 0.23,0.67 -0.45,0.22 -0.77,0.68 -0.77,1.22l0 0.54c0,0.15 0.12,0.27 0.27,0.27l2.69 0c0.15,0 0.27,-0.12 0.27,-0.27l0 -0.54c0,-0.54 -0.32,-1 -0.78,-1.22z"/>
  <path class="fil1" d="M7.85 16.45l-2.15 0 0 -0.27c0,-0.44 0.36,-0.8 0.81,-0.8l0.54 0c0.44,0 0.8,0.36 0.8,0.8l0 0.27zm-1.07 -2.69c0.29,0 0.54,0.24 0.54,0.54 0,0.29 -0.25,0.54 -0.54,0.54 -0.3,0 -0.54,-0.25 -0.54,-0.54 0,-0.3 0.24,-0.54 0.54,-0.54zm0.84 1.21c0.14,-0.19 0.23,-0.42 0.23,-0.67 0,-0.6 -0.48,-1.08 -1.07,-1.08 -0.6,0 -1.08,0.48 -1.08,1.08 0,0.25 0.09,0.48 0.24,0.67 -0.46,0.21 -0.78,0.68 -0.78,1.21l0 0.54c0,0.15 0.12,0.27 0.27,0.27l2.69 0c0.15,0 0.27,-0.12 0.27,-0.27l0 -0.54c0,-0.53 -0.32,-1 -0.77,-1.21z"/>
  <path class="fil1" d="M7.85 21.04l-2.15 0 0 -0.27c0,-0.44 0.36,-0.8 0.81,-0.8l0.54 0c0.44,0 0.8,0.36 0.8,0.8l0 0.27zm-1.07 -2.69c0.29,0 0.54,0.24 0.54,0.54 0,0.29 -0.25,0.54 -0.54,0.54 -0.3,0 -0.54,-0.25 -0.54,-0.54 0,-0.3 0.24,-0.54 0.54,-0.54zm0.84 1.21c0.14,-0.19 0.23,-0.42 0.23,-0.67 0,-0.6 -0.48,-1.08 -1.07,-1.08 -0.6,0 -1.08,0.48 -1.08,1.08 0,0.25 0.09,0.48 0.24,0.67 -0.46,0.21 -0.78,0.68 -0.78,1.21l0 0.54c0,0.15 0.12,0.27 0.27,0.27l2.69 0c0.15,0 0.27,-0.12 0.27,-0.27l0 -0.54c0,-0.53 -0.32,-1 -0.77,-1.21z"/>
  <path class="fil1" d="M10.33 26.5l-1.45 0 0 -0.18c0,-0.3 0.24,-0.54 0.54,-0.54l0.36 0c0.3,0 0.55,0.24 0.55,0.54l0 0.18zm-0.73 -1.81c0.2,0 0.36,0.16 0.36,0.36 0,0.2 -0.16,0.37 -0.36,0.37 -0.2,0 -0.36,-0.17 -0.36,-0.37 0,-0.2 0.16,-0.36 0.36,-0.36zm0.57 0.81c0.1,-0.12 0.16,-0.28 0.16,-0.45 0,-0.4 -0.33,-0.72 -0.73,-0.72 -0.4,0 -0.72,0.32 -0.72,0.72 0,0.17 0.06,0.33 0.16,0.45 -0.31,0.15 -0.52,0.46 -0.52,0.82l0 0.36c0,0.1 0.08,0.19 0.18,0.19l1.81 0c0.1,0 0.18,-0.09 0.18,-0.19l0 -0.36c0,-0.36 -0.22,-0.67 -0.52,-0.82z"/>
  <path class="fil1" d="M27.72 23.36l-1.45 0 0 -0.18c0,-0.3 0.24,-0.54 0.54,-0.54l0.37 0c0.3,0 0.54,0.24 0.54,0.54l0 0.18zm-0.73 -1.81c0.2,0 0.37,0.16 0.37,0.36 0,0.2 -0.17,0.37 -0.37,0.37 -0.2,0 -0.36,-0.17 -0.36,-0.37 0,-0.2 0.16,-0.36 0.36,-0.36zm0.57 0.81c0.1,-0.12 0.16,-0.28 0.16,-0.45 0,-0.4 -0.33,-0.72 -0.73,-0.72 -0.4,0 -0.72,0.32 -0.72,0.72 0,0.17 0.06,0.33 0.16,0.45 -0.31,0.15 -0.52,0.46 -0.52,0.82l0 0.36c0,0.1 0.08,0.19 0.18,0.19l1.81 0c0.1,0 0.18,-0.09 0.18,-0.19l0 -0.36c0,-0.36 -0.21,-0.67 -0.52,-0.82z"/>
  <path class="fil1" d="M8.03 12.13l-1.45 0 0 -0.18c0,-0.3 0.25,-0.54 0.55,-0.54l0.36 0c0.3,0 0.54,0.24 0.54,0.54l0 0.18zm-0.72 -1.81c0.2,0 0.36,0.16 0.36,0.36 0,0.2 -0.16,0.36 -0.36,0.36 -0.2,0 -0.36,-0.16 -0.36,-0.36 0,-0.2 0.16,-0.36 0.36,-0.36zm0.56 0.81c0.1,-0.12 0.16,-0.28 0.16,-0.45 0,-0.4 -0.32,-0.72 -0.72,-0.72 -0.4,0 -0.73,0.32 -0.73,0.72 0,0.17 0.06,0.33 0.16,0.45 -0.3,0.15 -0.52,0.46 -0.52,0.82l0 0.36c0,0.1 0.08,0.18 0.18,0.18l1.81 0c0.1,0 0.18,-0.08 0.18,-0.18l0 -0.36c0,-0.36 -0.21,-0.67 -0.52,-0.82z"/>
  <path class="fil1" d="M9.96 9.11l-1.44 0 0 -0.18c0,-0.3 0.24,-0.54 0.54,-0.54l0.36 0c0.3,0 0.54,0.24 0.54,0.54l0 0.18zm-0.72 -1.81c0.2,0 0.36,0.16 0.36,0.36 0,0.2 -0.16,0.36 -0.36,0.36 -0.2,0 -0.36,-0.16 -0.36,-0.36 0,-0.2 0.16,-0.36 0.36,-0.36zm0.56 0.81c0.1,-0.12 0.16,-0.28 0.16,-0.45 0,-0.4 -0.32,-0.72 -0.72,-0.72 -0.4,0 -0.72,0.32 -0.72,0.72 0,0.17 0.06,0.33 0.16,0.45 -0.31,0.15 -0.53,0.46 -0.53,0.82l0 0.36c0,0.1 0.08,0.18 0.18,0.18l1.82 0c0.1,0 0.18,-0.08 0.18,-0.18l0 -0.36c0,-0.36 -0.22,-0.67 -0.53,-0.82z"/>
  <path class="fil1" d="M12.74 8.14l-1.45 0 0 -0.18c0,-0.3 0.25,-0.54 0.55,-0.54l0.36 0c0.3,0 0.54,0.24 0.54,0.54l0 0.18zm-0.72 -1.81c0.2,0 0.36,0.17 0.36,0.37 0,0.2 -0.16,0.36 -0.36,0.36 -0.2,0 -0.36,-0.16 -0.36,-0.36 0,-0.2 0.16,-0.37 0.36,-0.37zm0.56 0.82c0.1,-0.13 0.16,-0.28 0.16,-0.45 0,-0.4 -0.32,-0.73 -0.72,-0.73 -0.4,0 -0.73,0.33 -0.73,0.73 0,0.17 0.07,0.32 0.16,0.45 -0.3,0.14 -0.52,0.45 -0.52,0.81l0 0.37c0,0.1 0.08,0.18 0.18,0.18l1.81 0c0.1,0 0.18,-0.08 0.18,-0.18l0 -0.37c0,-0.36 -0.21,-0.67 -0.52,-0.81z"/>
  <path class="fil1" d="M27.36 11.04l-1.45 0 0 -0.18c0,-0.3 0.24,-0.54 0.54,-0.54l0.36 0c0.3,0 0.55,0.24 0.55,0.54l0 0.18zm-0.73 -1.81c0.2,0 0.36,0.16 0.36,0.36 0,0.2 -0.16,0.37 -0.36,0.37 -0.2,0 -0.36,-0.17 -0.36,-0.37 0,-0.2 0.16,-0.36 0.36,-0.36zm0.57 0.81c0.09,-0.12 0.16,-0.27 0.16,-0.45 0,-0.4 -0.33,-0.72 -0.73,-0.72 -0.4,0 -0.72,0.32 -0.72,0.72 0,0.18 0.06,0.33 0.16,0.45 -0.31,0.15 -0.52,0.46 -0.52,0.82l0 0.36c0,0.1 0.08,0.19 0.18,0.19l1.81 0c0.1,0 0.18,-0.09 0.18,-0.19l0 -0.36c0,-0.36 -0.22,-0.67 -0.52,-0.82z"/>
  <path class="fil1" d="M29.29 18.17l-1.45 0 0 -0.18c0,-0.3 0.24,-0.55 0.54,-0.55l0.37 0c0.3,0 0.54,0.25 0.54,0.55l0 0.18zm-0.73 -1.81c0.2,0 0.37,0.16 0.37,0.36 0,0.2 -0.17,0.36 -0.37,0.36 -0.2,0 -0.36,-0.16 -0.36,-0.36 0,-0.2 0.16,-0.36 0.36,-0.36zm0.57 0.81c0.1,-0.12 0.16,-0.28 0.16,-0.45 0,-0.4 -0.33,-0.72 -0.73,-0.72 -0.4,0 -0.72,0.32 -0.72,0.72 0,0.17 0.06,0.33 0.16,0.45 -0.31,0.14 -0.52,0.46 -0.52,0.82l0 0.36c0,0.1 0.08,0.18 0.18,0.18l1.81 0c0.1,0 0.18,-0.08 0.18,-0.18l0 -0.36c0,-0.36 -0.21,-0.68 -0.52,-0.82z"/>
  <path class="fil1" d="M29.05 14.3l-1.45 0 0 -0.18c0,-0.3 0.24,-0.54 0.54,-0.54l0.36 0c0.3,0 0.55,0.24 0.55,0.54l0 0.18zm-0.73 -1.81c0.2,0 0.37,0.17 0.37,0.37 0,0.2 -0.17,0.36 -0.37,0.36 -0.2,0 -0.36,-0.16 -0.36,-0.36 0,-0.2 0.16,-0.37 0.36,-0.37zm0.57 0.82c0.1,-0.13 0.16,-0.28 0.16,-0.45 0,-0.4 -0.33,-0.73 -0.73,-0.73 -0.4,0 -0.72,0.33 -0.72,0.73 0,0.17 0.06,0.32 0.16,0.45 -0.31,0.14 -0.52,0.45 -0.52,0.81l0 0.37c0,0.1 0.08,0.18 0.18,0.18l1.81 0c0.1,0 0.18,-0.08 0.18,-0.18l0 -0.37c0,-0.36 -0.22,-0.67 -0.52,-0.81z"/>
  <path class="fil1" d="M21.32 19.98l-1.45 0 0 -0.18c0,-0.3 0.24,-0.54 0.54,-0.54l0.36 0c0.3,0 0.55,0.24 0.55,0.54l0 0.18zm-0.73 -1.81c0.2,0 0.37,0.16 0.37,0.36 0,0.2 -0.17,0.36 -0.37,0.36 -0.2,0 -0.36,-0.16 -0.36,-0.36 0,-0.2 0.16,-0.36 0.36,-0.36zm0.57 0.81c0.1,-0.12 0.16,-0.28 0.16,-0.45 0,-0.4 -0.33,-0.72 -0.73,-0.72 -0.4,0 -0.72,0.32 -0.72,0.72 0,0.17 0.06,0.33 0.16,0.45 -0.31,0.15 -0.52,0.46 -0.52,0.82l0 0.36c0,0.1 0.08,0.18 0.18,0.18l1.81 0c0.1,0 0.18,-0.08 0.18,-0.18l0 -0.36c0,-0.36 -0.22,-0.67 -0.52,-0.82z"/>
  <path class="fil1" d="M8.15 23.97l-1.45 0 0 -0.18c0,-0.3 0.25,-0.55 0.55,-0.55l0.36 0c0.3,0 0.54,0.25 0.54,0.55l0 0.18zm-0.72 -1.81c0.2,0 0.36,0.16 0.36,0.36 0,0.2 -0.16,0.36 -0.36,0.36 -0.2,0 -0.36,-0.16 -0.36,-0.36 0,-0.2 0.16,-0.36 0.36,-0.36zm0.56 0.81c0.1,-0.13 0.16,-0.28 0.16,-0.45 0,-0.4 -0.32,-0.73 -0.72,-0.73 -0.4,0 -0.73,0.33 -0.73,0.73 0,0.17 0.07,0.32 0.16,0.45 -0.3,0.14 -0.52,0.45 -0.52,0.82l0 0.36c0,0.1 0.08,0.18 0.18,0.18l1.81 0c0.1,0 0.19,-0.08 0.19,-0.18l0 -0.36c0,-0.37 -0.22,-0.68 -0.53,-0.82z"/>
  <path class="fil1" d="M15.28 25.9l-1.45 0 0 -0.18c0,-0.3 0.24,-0.55 0.54,-0.55l0.37 0c0.3,0 0.54,0.25 0.54,0.55l0 0.18zm-0.73 -1.81c0.2,0 0.37,0.16 0.37,0.36 0,0.2 -0.17,0.36 -0.37,0.36 -0.2,0 -0.36,-0.16 -0.36,-0.36 0,-0.2 0.16,-0.36 0.36,-0.36zm0.57 0.81c0.1,-0.12 0.16,-0.28 0.16,-0.45 0,-0.4 -0.33,-0.72 -0.73,-0.72 -0.4,0 -0.72,0.32 -0.72,0.72 0,0.17 0.06,0.33 0.16,0.45 -0.31,0.14 -0.52,0.46 -0.52,0.82l0 0.36c0,0.1 0.08,0.18 0.18,0.18l1.81 0c0.1,0 0.18,-0.08 0.18,-0.18l0 -0.36c0,-0.36 -0.21,-0.68 -0.52,-0.82z"/>
  <path class="fil1" d="M20.35 10.68l-1.45 0 0 -0.18c0,-0.3 0.25,-0.54 0.55,-0.54l0.36 0c0.3,0 0.54,0.24 0.54,0.54l0 0.18zm-0.72 -1.81c0.2,0 0.36,0.16 0.36,0.36 0,0.2 -0.16,0.36 -0.36,0.36 -0.2,0 -0.37,-0.16 -0.37,-0.36 0,-0.2 0.17,-0.36 0.37,-0.36zm0.56 0.81c0.1,-0.12 0.16,-0.28 0.16,-0.45 0,-0.4 -0.32,-0.72 -0.72,-0.72 -0.4,0 -0.73,0.32 -0.73,0.72 0,0.17 0.06,0.33 0.16,0.45 -0.3,0.15 -0.52,0.46 -0.52,0.82l0 0.36c0,0.1 0.08,0.18 0.18,0.18l1.81 0c0.1,0 0.18,-0.08 0.18,-0.18l0 -0.36c0,-0.36 -0.21,-0.67 -0.52,-0.82z"/>
  <path class="fil1" d="M23.61 13.94l-1.45 0 0 -0.18c0,-0.3 0.25,-0.54 0.55,-0.54l0.36 0c0.3,0 0.54,0.24 0.54,0.54l0 0.18zm-0.72 -1.81c0.2,0 0.36,0.16 0.36,0.36 0,0.2 -0.16,0.37 -0.36,0.37 -0.2,0 -0.36,-0.17 -0.36,-0.37 0,-0.2 0.16,-0.36 0.36,-0.36zm0.56 0.81c0.1,-0.12 0.16,-0.28 0.16,-0.45 0,-0.4 -0.32,-0.72 -0.72,-0.72 -0.4,0 -0.73,0.32 -0.73,0.72 0,0.17 0.07,0.33 0.16,0.45 -0.3,0.15 -0.52,0.46 -0.52,0.82l0 0.36c0,0.1 0.08,0.18 0.18,0.18l1.81 0c0.1,0 0.18,-0.08 0.18,-0.18l0 -0.36c0,-0.36 -0.21,-0.67 -0.52,-0.82z"/>
 </g>
</svg>
