<svg xmlns="http://www.w3.org/2000/svg" width="1088" height="389" viewBox="0 0 1088 389">
  <g id="Group_5262" data-name="Group 5262" transform="translate(-416 -2823)">
    <g id="_001-man" data-name="001-man" transform="translate(776 3081.138)">
      <path id="Path_35307" data-name="Path 35307" d="M43.5,37.5a45.367,45.367,0,0,1,9,5c4,3,4,7,4,12v8h-43v-8c0-4,0-10,4-12l6-3Z" fill="#fa8cb4"/>
      <path id="Path_35308" data-name="Path 35308" d="M13.5,62.5h43v-2h-43Z" fill="#e678a0"/>
      <path id="Path_35309" data-name="Path 35309" d="M38.5,35.912V33.74L29.445,36.5V37.8L22.5,40.5l1.63,7.334a1,1,0,0,0,1.643.529l5.44-4.863H31.5l7.005,5.253a1,1,0,0,0,1.51-.386L44.5,38.5Z" fill="#e678a0"/>
      <path id="Path_35310" data-name="Path 35310" d="M28.5,43.5l1,6h5l1.4-5.253L31.5,41.5Z" fill="#aad2ff"/>
      <path id="Path_35311" data-name="Path 35311" d="M35.9,44.247,31.5,41.5l-3,2,.352,2.11,2.36-2.11H31.5l3.83,2.873Z" fill="#96bef0"/>
      <path id="Path_35312" data-name="Path 35312" d="M52.5,42.5a45.367,45.367,0,0,0-9-5l-20,2-6,3c-4,2-4,8-4,12v2c0-4,0-10,4-12a59.462,59.462,0,0,1,7-3l18-2a41.72,41.72,0,0,1,10,5c4,3,4,7,4,12v-2C56.5,49.5,56.5,45.5,52.5,42.5Z" fill="#ffa0c8"/>
      <path id="Path_35313" data-name="Path 35313" d="M25.625,39.288,22.5,40.5l.357,1.609c1.032-.4,1.643-.609,1.643-.609l18-2s.513.172,1.326.484L44.5,38.5l-2.07-.893Z" fill="#fa8cb4"/>
      <path id="Path_35314" data-name="Path 35314" d="M40.126,18.5c-.457,2.069-1.332,5-2.626,5-2,0-2-6-2-6h-10c-.665,0-2.169.2-3.565.131-3-.138-6.435-2.126-6.435-6.131,0-6,2-8,3-7s3,3,4,3c0,0-1.581-2.419,0-4,1-1,3,4,7,4s15-1,15,6-2,12-2,15-1.387,2.911-4.193,2.911Z" fill="#cb783f"/>
      <path id="Path_35315" data-name="Path 35315" d="M42.431,27.5c-.3,1.9-1.572,1.913-3.842,1.911l-.282,2c2.807,0,4.193.089,4.193-2.911a9.854,9.854,0,0,1,.07-1Z" fill="#cb783f"/>
      <path id="Path_35316" data-name="Path 35316" d="M35.5,16.5a1,1,0,0,0-1-1h-9c-.665,0-2.169.2-3.565.131-2.816-.13-6.024-1.9-6.4-5.436-.022.415-.037.844-.037,1.305,0,4.005,3.44,5.992,6.435,6.131,1.4.065,2.9-.131,3.565-.131h10Z" fill="#cb783f"/>
      <path id="Path_35317" data-name="Path 35317" d="M22.5,5.5c1-1,3,4,7,4,3.859,0,14.228-.928,14.956,5.29.015-.43.044-.844.044-1.29,0-7-11-6-15-6s-6-5-7-4a2.7,2.7,0,0,0-.53,2.815A2.32,2.32,0,0,1,22.5,5.5Z" fill="#dc8c50"/>
      <path id="Path_35318" data-name="Path 35318" d="M18.5,6.5c1,1,3,3,4,3a4.765,4.765,0,0,1-.7-2.226A17.029,17.029,0,0,1,18.5,4.5c-1-1-3,1-3,7,0,.2.031.368.047.552C15.841,7.189,17.586,5.586,18.5,6.5Z" fill="#dc8c50"/>
      <path id="Path_35319" data-name="Path 35319" d="M29.445,34.5v7H38.5V30.74Z" fill="#ffb4be"/>
      <path id="Path_35320" data-name="Path 35320" d="M21.5,17.5v11a6,6,0,0,0,6,6h5a7,7,0,0,0,7-7v-1h2a3,3,0,0,0,3-3v-2a3,3,0,0,0-3-3h-2l-3-1Z" fill="#ffc8d2"/>
      <g id="Group_5262-2" data-name="Group 5262">
        <path id="Path_35321" data-name="Path 35321" d="M23.5,25a.5.5,0,0,1-.5-.5v-3a.5.5,0,0,1,1,0v3A.5.5,0,0,1,23.5,25Z" fill="#f12e39"/>
        <path id="Path_35322" data-name="Path 35322" d="M22,27a4,4,0,0,1-4-4,.5.5,0,0,1,1,0,3,3,0,0,0,4.107,2.789.5.5,0,1,1,.369.929A3.977,3.977,0,0,1,22,27Z" fill="#f12e39"/>
        <path id="Path_35323" data-name="Path 35323" d="M33.5,21a.5.5,0,0,1-.354-.146c-2.588-2.586-4.228-1.062-4.3-1a.5.5,0,0,1-.7-.71c.023-.023,2.391-2.316,5.707,1a.5.5,0,0,1,0,.707A.494.494,0,0,1,33.5,21Z" fill="#f12e39"/>
        <path id="Path_35324" data-name="Path 35324" d="M24.5,20a.5.5,0,0,1-.353-.145,1.723,1.723,0,0,0-2.342-.082.5.5,0,1,1-.616-.788,2.717,2.717,0,0,1,3.664.162A.5.5,0,0,1,24.5,20Z" fill="#f12e39"/>
      </g>
      <path id="Path_35325" data-name="Path 35325" d="M40.126,18.5c-.457,2.069-1.332,5-2.626,5-2,0-2-7-2-7Z" fill="#cb783f"/>
      <g id="Group_5263" data-name="Group 5263">
        <path id="Path_35326" data-name="Path 35326" d="M41.5,27h-2a.5.5,0,0,1,0-1h2A2.5,2.5,0,0,0,44,23.5v-2A2.5,2.5,0,0,0,41.5,19h-1a.5.5,0,0,1,0-1h1A3.5,3.5,0,0,1,45,21.5v2A3.5,3.5,0,0,1,41.5,27Z" fill="#f12e39"/>
        <path id="Path_35327" data-name="Path 35327" d="M32.5,35h-5A6.508,6.508,0,0,1,21,28.5v-11a.5.5,0,0,1,1,0v11A5.506,5.506,0,0,0,27.5,34h5a.5.5,0,0,1,0,1Z" fill="#f12e39"/>
        <path id="Path_35328" data-name="Path 35328" d="M30.5,31h-5a.5.5,0,0,1,0-1h5a.459.459,0,0,0,.5-.506A.478.478,0,0,1,31.506,29a.5.5,0,0,1,.494.5A1.458,1.458,0,0,1,30.5,31Z" fill="#f12e39"/>
        <path id="Path_35329" data-name="Path 35329" d="M25.5,28c-1.153,0-2.5-.393-2.5-1.5,0-1.064,1.71-4.538,2.053-5.224a.5.5,0,1,1,.9.447A23.413,23.413,0,0,0,24,26.5c0,.3.9.5,1.5.5a.5.5,0,0,1,0,1Z" fill="#f12e39"/>
        <path id="Path_35330" data-name="Path 35330" d="M30.5,25a.5.5,0,0,1-.5-.5v-3a.5.5,0,0,1,1,0v3A.5.5,0,0,1,30.5,25Z" fill="#f12e39"/>
        <path id="Path_35331" data-name="Path 35331" d="M38.771,31.911h-.464a.5.5,0,0,1,0-1h.237a6.7,6.7,0,0,0,2.729-.3c.359-.2.727-.6.727-2.112a13.006,13.006,0,0,1,.216-2.13.5.5,0,0,1,.986.166A12.019,12.019,0,0,0,43,28.5c0,1.59-.383,2.512-1.244,2.987A6.313,6.313,0,0,1,38.771,31.911Z" fill="#f12e39"/>
        <path id="Path_35332" data-name="Path 35332" d="M44,20.192a.509.509,0,0,1-.077-.006.5.5,0,0,1-.418-.57A39.88,39.88,0,0,0,44,13.5a4.257,4.257,0,0,0-1.269-3.21c-2.559-2.506-8.373-2.384-11.846-2.31C30.366,7.99,29.9,8,29.5,8c-2.566,0-4.36-1.869-5.547-3.105-.405-.422-.959-1-1.161-1.027-1.21,1.257.071,3.274.126,3.36A.5.5,0,0,1,22.5,8c-1.114,0-2.831-1.624-4.354-3.146a.266.266,0,0,0-.334-.068C17.084,5.087,16,7.124,16,11.5c0,2.77,1.88,4.519,5.588,5.2a.5.5,0,0,1,.4.582.494.494,0,0,1-.582.4C17.216,16.914,15,14.776,15,11.5c0-4.9,1.309-7.174,2.43-7.639a1.256,1.256,0,0,1,1.424.285,24.827,24.827,0,0,0,2.653,2.378,3.192,3.192,0,0,1,.64-3.378.814.814,0,0,1,.661-.279c.591.006,1.126.563,1.867,1.334C25.808,5.383,27.36,7,29.5,7c.393,0,.853-.01,1.364-.021,3.629-.076,9.707-.2,12.566,2.6A5.278,5.278,0,0,1,45,13.5a40.987,40.987,0,0,1-.5,6.269A.5.5,0,0,1,44,20.192Z" fill="#f12e39"/>
        <path id="Path_35333" data-name="Path 35333" d="M56.5,63h-43a.5.5,0,0,1-.5-.5v-8c0-4.1,0-10.309,4.276-12.447l6-3,5.668-3.525V34.5a.5.5,0,0,1,1,0v1.305a.5.5,0,0,1-.236.425l-5.944,3.695-6.041,3.022C14,44.809,14,50.641,14,54.5V62H56V54.5c0-4.889,0-8.75-3.8-11.6a45.184,45.184,0,0,0-8.886-4.936.518.518,0,0,1-.106-.058l-5-3.588A.5.5,0,0,1,38,33.912V31.74a.5.5,0,0,1,1,0v1.915l4.743,3.4A45.267,45.267,0,0,1,52.8,42.1C57,45.25,57,49.537,57,54.5v8a.5.5,0,0,1-.5.5Z" fill="#f12e39"/>
        <path id="Path_35334" data-name="Path 35334" d="M29.444,36a.5.5,0,0,1-.5-.5v-1a.5.5,0,0,1,1,0v1A.5.5,0,0,1,29.444,36Z" fill="#f12e39"/>
      </g>
      <path id="Path_35335" data-name="Path 35335" d="M29.5,49.5l-2.028,13H36.5l-2-13Z" fill="#aad2ff"/>
      <path id="Path_35336" data-name="Path 35336" d="M27.784,60.5l-.312,2H36.5l-.308-2Z" fill="#96bef0"/>
      <path id="Path_35337" data-name="Path 35337" d="M46.5,63a.5.5,0,0,1-.5-.5v-12a.5.5,0,0,1,1,0v12A.5.5,0,0,1,46.5,63Z" fill="#e678a0"/>
      <path id="Path_35338" data-name="Path 35338" d="M17.5,63a.5.5,0,0,1-.5-.5v-11a.5.5,0,0,1,1,0v11A.5.5,0,0,1,17.5,63Z" fill="#e678a0"/>
      <path id="Path_35339" data-name="Path 35339" d="M29.444,36a.5.5,0,0,1-.5-.5v-1a.5.5,0,0,1,1,0v1A.5.5,0,0,1,29.444,36Z" fill="#f12e39"/>
      <path id="Path_35340" data-name="Path 35340" d="M31.5,41.5l8,5,4-9-5-3.588Z" fill="#fa8cb4"/>
      <path id="Path_35341" data-name="Path 35341" d="M38.5,33.912,37.132,35.4,42.5,39.5l1-2Z" fill="#ffa0c8"/>
      <path id="Path_35342" data-name="Path 35342" d="M31.5,41.5l-2.055-5.695L23.5,39.5l2,7Z" fill="#fa8cb4"/>
      <path id="Path_35343" data-name="Path 35343" d="M30.1,37.6l-.653-1.8L23.5,39.5l.489,1.711Z" fill="#ffa0c8"/>
      <path id="Path_35344" data-name="Path 35344" d="M56.5,63h-43a.5.5,0,0,1-.5-.5v-8c0-4.1,0-10.309,4.276-12.447l6-3,5.9-3.672a.5.5,0,1,1,.528.85l-5.944,3.695-6.041,3.022C14,44.809,14,50.641,14,54.5V62H56V54.5c0-4.889,0-8.75-3.8-11.6a45.184,45.184,0,0,0-8.886-4.936.518.518,0,0,1-.106-.058l-4.641-3.331-3.855,4.179a.5.5,0,0,1-.736-.678l4.155-4.5a.5.5,0,0,1,.659-.067l4.951,3.554A45.267,45.267,0,0,1,52.8,42.1C57,45.25,57,49.537,57,54.5v8a.5.5,0,0,1-.5.5Z" fill="#f12e39"/>
      <path id="Path_35345" data-name="Path 35345" d="M34.808,51.5l-.308-2h-5l-.312,2Z" fill="#96bef0"/>
      <circle id="Ellipse_301" data-name="Ellipse 301" cx="1" cy="1" r="1" transform="translate(25 42)" fill="#ffe885"/>
      <circle id="Ellipse_302" data-name="Ellipse 302" cx="1" cy="1" r="1" transform="translate(38 42)" fill="#ffe885"/>
      <path id="Path_35346" data-name="Path 35346" d="M31,27a4,4,0,0,1-4-4,.5.5,0,0,1,1,0,3,3,0,0,0,6,0,.5.5,0,0,1,.5-.5h2.582a.5.5,0,0,1,0,1H34.969A4.007,4.007,0,0,1,31,27Z" fill="#f12e39"/>
    </g>
    <g id="_002-businessman" data-name="002-businessman" transform="translate(1198 2820.505)">
      <path id="Path_35347" data-name="Path 35347" d="M43.5,37.5a45.367,45.367,0,0,1,9,5c4,3,4,7,4,12v8h-43v-8c0-4,0-10,4-12l6-3Z" fill="#fa8cb4"/>
      <path id="Path_35348" data-name="Path 35348" d="M38.5,35.912V33.74L29.445,36.5V37.8L22.5,40.5l1.63,7.334a1,1,0,0,0,1.643.529l5.44-4.863H31.5l7.005,5.253a1,1,0,0,0,1.51-.386L44.5,38.5Z" fill="#e678a0"/>
      <path id="Path_35349" data-name="Path 35349" d="M28.5,43.5l1,6h5l1.4-5.253L31.5,41.5Z" fill="#aad2ff"/>
      <path id="Path_35350" data-name="Path 35350" d="M35.9,44.247,31.5,41.5l-3,2,.352,2.11,2.36-2.11H31.5l3.83,2.873Z" fill="#96bef0"/>
      <path id="Path_35351" data-name="Path 35351" d="M52.5,42.5a45.367,45.367,0,0,0-9-5l-20,2-6,3c-4,2-4,8-4,12v2c0-4,0-10,4-12a59.462,59.462,0,0,1,7-3l18-2a41.72,41.72,0,0,1,10,5c4,3,4,7,4,12v-2C56.5,49.5,56.5,45.5,52.5,42.5Z" fill="#ffa0c8"/>
      <path id="Path_35352" data-name="Path 35352" d="M25.625,39.288,22.5,40.5l.357,1.609c1.032-.4,1.643-.609,1.643-.609l18-2s.513.172,1.326.484L44.5,38.5l-2.07-.893Z" fill="#fa8cb4"/>
      <path id="Path_35353" data-name="Path 35353" d="M29.445,33.5v8H39.5V25.74Z" fill="#ffb4be"/>
      <path id="Path_35354" data-name="Path 35354" d="M21.5,17.591s-2-2.182-2-4.364,2-4.364,4-5.455a7.153,7.153,0,0,1,5-4.364c4-1.091,10,0,12,3.273a6.59,6.59,0,0,1,5,6.545c0,5.454-3,10.909-3,10.909a5.74,5.74,0,0,1-1,3.273,4.651,4.651,0,0,1-3,1.091Z" fill="#d9b92e"/>
      <path id="Path_35355" data-name="Path 35355" d="M23.5,9.773a7.153,7.153,0,0,1,5-4.364c4-1.091,10,0,12,3.273A6.6,6.6,0,0,1,45.452,14.4c.029-.389.048-.78.048-1.172a6.589,6.589,0,0,0-5-6.545c-2-3.273-8-4.364-12-3.273a7.153,7.153,0,0,0-5,4.364c-2,1.091-4,3.273-4,5.455a4.255,4.255,0,0,0,.143,1.014A7.944,7.944,0,0,1,23.5,9.773Z" fill="#e8d273"/>
      <path id="Path_35356" data-name="Path 35356" d="M38.5,29a.5.5,0,0,1-.271-.079l-17-10.909a.485.485,0,0,1-.1-.083c-.087-.095-2.131-2.352-2.131-4.7,0-2.385,2.09-4.647,4.092-5.8a7.7,7.7,0,0,1,5.276-4.5c4.159-1.133,10.22-.038,12.45,3.324A7.089,7.089,0,0,1,46,13.227a26.31,26.31,0,0,1-3,11.04,5.959,5.959,0,0,1-1.129,3.48A5.108,5.108,0,0,1,38.5,29ZM21.828,17.208,38.639,27.995a3.956,3.956,0,0,0,2.493-.923A5.113,5.113,0,0,0,42,24.136a.5.5,0,0,1,.062-.241C42.091,23.842,45,18.485,45,13.227A6.122,6.122,0,0,0,40.394,7.17a.5.5,0,0,1-.32-.228c-1.85-3.027-7.564-4.107-11.441-3.051A6.675,6.675,0,0,0,23.98,7.918a.5.5,0,0,1-.239.293C21.881,9.226,20,11.273,20,13.227c0,1.8,1.556,3.667,1.828,3.981Z" fill="#f12e39"/>
      <path id="Path_35357" data-name="Path 35357" d="M40.5,17.5h1a3,3,0,0,1,3,3v2a3,3,0,0,1-3,3h-2v1a7,7,0,0,1-7,7h-5a6,6,0,0,1-6-6v-11a6.459,6.459,0,0,1,3-5,2.938,2.938,0,0,0,3,3c3,0,5-3,7-3s5,2,4,4-2,4-1,5C39.5,22.5,40.5,17.5,40.5,17.5Z" fill="#ffc8d2"/>
      <g id="Group_5264" data-name="Group 5264">
        <path id="Path_35358" data-name="Path 35358" d="M23.5,23a.5.5,0,0,1-.5-.5v-2a.5.5,0,0,1,1,0v2A.5.5,0,0,1,23.5,23Z" fill="#f12e39"/>
        <path id="Path_35359" data-name="Path 35359" d="M31.5,30h-5a.5.5,0,0,1,0-1h5a.5.5,0,0,1,0,1Z" fill="#f12e39"/>
        <path id="Path_35360" data-name="Path 35360" d="M32.5,34h-5A6.508,6.508,0,0,1,21,27.5V17.164a.5.5,0,1,1,1,0V27.5A5.506,5.506,0,0,0,27.5,33h5A6.508,6.508,0,0,0,39,26.5v-1a.5.5,0,0,1,.5-.5h2A2.5,2.5,0,0,0,44,22.5v-2A2.5,2.5,0,0,0,41.5,18h-1a.5.5,0,0,1,0-1h1A3.5,3.5,0,0,1,45,20.5v2A3.5,3.5,0,0,1,41.5,26H40v.5A7.508,7.508,0,0,1,32.5,34Z" fill="#f12e39"/>
        <path id="Path_35361" data-name="Path 35361" d="M25.5,26c-1.153,0-2.5-.393-2.5-1.5,0-1.064,1.71-4.538,2.053-5.224a.5.5,0,1,1,.9.447A23.413,23.413,0,0,0,24,24.5c0,.3.9.5,1.5.5a.5.5,0,0,1,0,1Z" fill="#f12e39"/>
        <path id="Path_35362" data-name="Path 35362" d="M30.5,23a.5.5,0,0,1-.5-.5v-2a.5.5,0,0,1,1,0v2A.5.5,0,0,1,30.5,23Z" fill="#f12e39"/>
        <path id="Path_35363" data-name="Path 35363" d="M33.5,20a.5.5,0,0,1-.354-.146c-2.586-2.585-4.228-1.062-4.3-1a.5.5,0,0,1-.7-.71c.023-.023,2.394-2.314,5.707,1A.5.5,0,0,1,33.5,20Z" fill="#f12e39"/>
        <path id="Path_35364" data-name="Path 35364" d="M24.5,19a.5.5,0,0,1-.352-.145,1.727,1.727,0,0,0-2.344-.083.5.5,0,0,1-.615-.788,2.717,2.717,0,0,1,3.664.162.5.5,0,0,1,0,.707A.5.5,0,0,1,24.5,19Z" fill="#f12e39"/>
        <path id="Path_35365" data-name="Path 35365" d="M29.444,36a.5.5,0,0,1-.5-.5v-1a.5.5,0,0,1,1,0v1A.5.5,0,0,1,29.444,36Z" fill="#785ae6"/>
      </g>
      <path id="Path_35366" data-name="Path 35366" d="M31.5,34.5h3a5,5,0,0,0,5-5V26.152c-1,0-2.916,2.627-4.008,3.848s-.992.477-.992-.493c0-1.94-3.6-2.506-6.838-2.506s-3.92,1.01-3.92,2.506.394,1.536-.242.93-.94-4.042-2-4.042V29.5a5,5,0,0,0,5,5Zm-.659-1.92c-.977-.109-.869-1.1-.869-1.58s-3.441-.529-3.441,0c0,.76-.211,1.409-1.214,1.363-.614-.029-.47-1.363-.47-1.363,0-1.6-.231-2.655,2.653-2.655s5.789.486,5.789,1.655-.644,2.78-2.448,2.58Z" fill="#d9b92e"/>
      <path id="Path_35367" data-name="Path 35367" d="M31.5,35h-5A5.508,5.508,0,0,1,21,29.5V26.4a.5.5,0,0,1,1,0V29.5A4.507,4.507,0,0,0,26.5,34h5a.5.5,0,0,1,0,1Z" fill="#f12e39"/>
      <path id="Path_35368" data-name="Path 35368" d="M38.278,23.313a2.966,2.966,0,0,1-2.09-.924.5.5,0,1,1,.717-.7,1.852,1.852,0,0,0,1.916.541.5.5,0,0,1,.277.961A2.945,2.945,0,0,1,38.278,23.313Z" fill="#d9b92e"/>
      <path id="Path_35369" data-name="Path 35369" d="M37.769,25.059a2.4,2.4,0,0,1-1.649-.581.5.5,0,0,1,.7-.712,1.721,1.721,0,0,0,1.651.185.5.5,0,1,1,.281.959A3.478,3.478,0,0,1,37.769,25.059Z" fill="#d9b92e"/>
      <path id="Path_35370" data-name="Path 35370" d="M39.5,43a.5.5,0,0,1-.5-.5V25.74a.5.5,0,0,1,1,0V42.5A.5.5,0,0,1,39.5,43Z" fill="#f12e39"/>
      <path id="Path_35371" data-name="Path 35371" d="M13.5,62.5h43v-2h-43Z" fill="#e678a0"/>
      <path id="Path_35372" data-name="Path 35372" d="M29.5,49.5l-2.028,13H36.5l-2-13Z" fill="#aad2ff"/>
      <path id="Path_35373" data-name="Path 35373" d="M27.784,60.5l-.312,2H36.5l-.308-2Z" fill="#96bef0"/>
      <path id="Path_35374" data-name="Path 35374" d="M46.5,63a.5.5,0,0,1-.5-.5v-12a.5.5,0,0,1,1,0v12A.5.5,0,0,1,46.5,63Z" fill="#e678a0"/>
      <path id="Path_35375" data-name="Path 35375" d="M17.5,63a.5.5,0,0,1-.5-.5v-11a.5.5,0,0,1,1,0v11A.5.5,0,0,1,17.5,63Z" fill="#e678a0"/>
      <path id="Path_35376" data-name="Path 35376" d="M29.444,36a.5.5,0,0,1-.5-.5v-1a.5.5,0,0,1,1,0v1A.5.5,0,0,1,29.444,36Z" fill="#f12e39"/>
      <path id="Path_35377" data-name="Path 35377" d="M31.5,41.5l8,5,4-9-4-3.588Z" fill="#fa8cb4"/>
      <path id="Path_35378" data-name="Path 35378" d="M39.5,33.912,37.132,35.4,42.5,39.5l1-2Z" fill="#ffa0c8"/>
      <path id="Path_35379" data-name="Path 35379" d="M31.5,41.5l-2.055-5.695L23.5,39.5l2,7Z" fill="#fa8cb4"/>
      <path id="Path_35380" data-name="Path 35380" d="M30.1,37.6l-.653-1.8L23.5,39.5l.489,1.711Z" fill="#ffa0c8"/>
      <path id="Path_35381" data-name="Path 35381" d="M56.5,63h-43a.5.5,0,0,1-.5-.5v-8c0-4.1,0-10.309,4.276-12.447l6-3,5.9-3.672a.5.5,0,0,1,.527.85l-5.944,3.695-6.04,3.022C14,44.809,14,50.641,14,54.5V62H56V54.5c0-4.889,0-8.75-3.8-11.6a45.214,45.214,0,0,0-8.886-4.936.5.5,0,0,1-.148-.092L39.5,34.58l-4.821,4.212a.5.5,0,1,1-.658-.753l5.154-4.5a.5.5,0,0,1,.663,0l3.935,3.53A45.258,45.258,0,0,1,52.8,42.1C57,45.25,57,49.537,57,54.5v8a.5.5,0,0,1-.5.5Z" fill="#f12e39"/>
      <path id="Path_35382" data-name="Path 35382" d="M34.808,51.5l-.308-2h-5l-.312,2Z" fill="#96bef0"/>
      <g id="Group_5265" data-name="Group 5265">
        <circle id="Ellipse_303" data-name="Ellipse 303" cx="1" cy="1" r="1" transform="translate(25 42)" fill="#ffe885"/>
        <circle id="Ellipse_304" data-name="Ellipse 304" cx="1" cy="1" r="1" transform="translate(38 42)" fill="#ffe885"/>
      </g>
    </g>
    <g id="_003-man-1" data-name="003-man-1" transform="translate(1058 3081.992)">
      <path id="Path_35383" data-name="Path 35383" d="M43.5,37.5a45.367,45.367,0,0,1,9,5c4,3,4,7,4,12v8h-43v-8c0-4,0-10,4-12l6-3Z" fill="#fa8cb4"/>
      <path id="Path_35384" data-name="Path 35384" d="M38.5,35.912V33.74L29.445,36.5V37.8L22.5,40.5l1.63,7.334a1,1,0,0,0,1.643.529l5.44-4.863H31.5l7.005,5.253a1,1,0,0,0,1.51-.386L44.5,38.5Z" fill="#e678a0"/>
      <path id="Path_35385" data-name="Path 35385" d="M28.5,43.5l1,6h5l1.4-5.253L31.5,41.5Z" fill="#aad2ff"/>
      <path id="Path_35386" data-name="Path 35386" d="M35.9,44.247,31.5,41.5l-3,2,.352,2.11,2.36-2.11H31.5l3.83,2.873Z" fill="#96bef0"/>
      <path id="Path_35387" data-name="Path 35387" d="M52.5,42.5a45.367,45.367,0,0,0-9-5l-20,2-6,3c-4,2-4,8-4,12v2c0-4,0-10,4-12a59.462,59.462,0,0,1,7-3l18-2a41.72,41.72,0,0,1,10,5c4,3,4,7,4,12v-2C56.5,49.5,56.5,45.5,52.5,42.5Z" fill="#ffa0c8"/>
      <path id="Path_35388" data-name="Path 35388" d="M25.625,39.288,22.5,40.5l.357,1.609c1.032-.4,1.643-.609,1.643-.609l18-2s.513.172,1.326.484L44.5,38.5l-2.07-.893Z" fill="#fa8cb4"/>
      <path id="Path_35389" data-name="Path 35389" d="M21.5,19.5s-3-1-2-3c0,0-1.692-1.2-.741-2.465s1.9-.9,1.9-.9-2.113-.792-1.426-2.43A2.061,2.061,0,0,1,21.5,9.386s-1.791-1.373-.259-2.852A2.189,2.189,0,0,1,24.2,6.217a2.222,2.222,0,0,1,1.3-2.641,2.049,2.049,0,0,1,2.661.792A2.49,2.49,0,0,1,30.5,2.519a3.352,3.352,0,0,1,3,1.532,3.119,3.119,0,0,1,3.112-.9A2.171,2.171,0,0,1,38.5,5.319s2.232-1.215,3.764.158a2.09,2.09,0,0,1,.528,2.8s2.324-.317,2.9,1.162a1.964,1.964,0,0,1-.37,2.271,2.688,2.688,0,0,1,2.113,1.954,1.611,1.611,0,0,1-1.056,2.007s1.666,1.3,1.1,2.828-1.652,1.526-1.652,1.526a2.268,2.268,0,0,1-1.411,3.13L41.5,25.5s.523,1.374-.1,2.152a2.158,2.158,0,0,1-1.245,2.49l-1.656.6Z" fill="#cb783f"/>
      <path id="Path_35390" data-name="Path 35390" d="M21.241,8.534A2.189,2.189,0,0,1,24.2,8.217a2.222,2.222,0,0,1,1.3-2.641,2.049,2.049,0,0,1,2.661.792A2.49,2.49,0,0,1,30.5,4.519a3.352,3.352,0,0,1,3,1.532,3.119,3.119,0,0,1,3.112-.9A2.172,2.172,0,0,1,38.5,7.319s2.232-1.215,3.764.158a2.8,2.8,0,0,1,.582.71,2.091,2.091,0,0,0-.582-2.71C40.732,4.1,38.5,5.319,38.5,5.319a2.172,2.172,0,0,0-1.888-2.166,3.119,3.119,0,0,0-3.112.9,3.352,3.352,0,0,0-3-1.532,2.49,2.49,0,0,0-2.339,1.849A2.048,2.048,0,0,0,25.5,3.576a2.223,2.223,0,0,0-1.3,2.641,2.189,2.189,0,0,0-2.958.317,1.619,1.619,0,0,0-.26,2.291,2.7,2.7,0,0,1,.26-.291Z" fill="#dc8c50"/>
      <path id="Path_35391" data-name="Path 35391" d="M29.445,33.5v8H39.5V25.74Z" fill="#ffb4be"/>
      <path id="Path_35392" data-name="Path 35392" d="M39.5,35a.5.5,0,0,1-.5-.5V30.379a.5.5,0,1,1,1,0V34.5A.5.5,0,0,1,39.5,35Z" fill="#f12e39"/>
      <path id="Path_35393" data-name="Path 35393" d="M39.5,30.879a.5.5,0,0,1-.17-.971l.657-.237a1.642,1.642,0,0,0,.926-1.914.5.5,0,0,1,.1-.418c.362-.453.131-1.375.022-1.662a.5.5,0,0,1,.155-.568l2.926-2.343a.486.486,0,0,1,.134-.077,1.915,1.915,0,0,0,1.17-.991,2.1,2.1,0,0,0-.039-1.47.5.5,0,0,1,.457-.7c.021,0,.758-.047,1.183-1.2s-.93-2.251-.944-2.262a.5.5,0,0,1,.179-.876,1.106,1.106,0,0,0,.695-1.429A2.183,2.183,0,0,0,45.241,12.2a.5.5,0,0,1-.233-.877,1.474,1.474,0,0,0,.225-1.7c-.43-1.092-2.353-.853-2.373-.849a.5.5,0,0,1-.475-.783,1.588,1.588,0,0,0-.454-2.14c-1.253-1.125-3.172-.1-3.191-.092A.5.5,0,0,1,38,5.281c.006-.126.02-1.283-1.5-1.644a2.629,2.629,0,0,0-2.607.725.5.5,0,0,1-.819-.058,2.825,2.825,0,0,0-2.531-1.289,2,2,0,0,0-1.89,1.455.5.5,0,0,1-.926.137,1.539,1.539,0,0,0-2.034-.57,1.705,1.705,0,0,0-1.007,2.047.5.5,0,0,1-.8.518,1.679,1.679,0,0,0-2.3.289,1.238,1.238,0,0,0-.465.959,1.874,1.874,0,0,0,.681,1.136.5.5,0,0,1,.151.6.5.5,0,0,1-.553.284A1.544,1.544,0,0,0,19.7,10.9a.977.977,0,0,0-.026.792,2.282,2.282,0,0,0,1.168.977l0,0a.5.5,0,0,1-.357.934l-.006,0c-.02-.006-.632-.185-1.32.732a.809.809,0,0,0-.181.632,2.109,2.109,0,0,0,.812,1.126.5.5,0,0,1,.157.631,1.094,1.094,0,0,0-.075.948,3.238,3.238,0,0,0,1.786,1.354.5.5,0,1,1-.316.948,4.3,4.3,0,0,1-2.394-1.92,2.01,2.01,0,0,1-.048-1.4,2.79,2.79,0,0,1-.909-1.528,1.81,1.81,0,0,1,.368-1.389,3.121,3.121,0,0,1,.948-.87,2.4,2.4,0,0,1-.555-.774,1.977,1.977,0,0,1,.021-1.577,2.561,2.561,0,0,1,1.7-1.558,2.272,2.272,0,0,1-.345-1.045,2.207,2.207,0,0,1,.77-1.736,2.741,2.741,0,0,1,2.741-.79,2.565,2.565,0,0,1,1.676-2.271,2.545,2.545,0,0,1,2.706.33A3.063,3.063,0,0,1,30.464,2.02a3.7,3.7,0,0,1,3.1,1.291,3.638,3.638,0,0,1,3.166-.645A2.767,2.767,0,0,1,38.917,4.6a3.629,3.629,0,0,1,3.686.5,2.652,2.652,0,0,1,.953,2.648,2.745,2.745,0,0,1,2.611,1.5,2.6,2.6,0,0,1-.028,2.191,2.91,2.91,0,0,1,1.8,2.123,2.145,2.145,0,0,1-.712,2.219,2.877,2.877,0,0,1,.739,2.884,2.734,2.734,0,0,1-1.493,1.708,2.884,2.884,0,0,1-.12,1.693,2.833,2.833,0,0,1-1.666,1.52l-2.6,2.083a2.841,2.841,0,0,1-.151,2.091,2.552,2.552,0,0,1-1.6,2.844l-.66.238a.5.5,0,0,1-.17.029Z" fill="#f12e39"/>
      <path id="Path_35394" data-name="Path 35394" d="M21.5,12.5v15a6,6,0,0,0,6,6h5a7,7,0,0,0,7-7v-1h2a3,3,0,0,0,3-3v-2a3,3,0,0,0-3-3h-2l-3-5Z" fill="#ffc8d2"/>
      <path id="Path_35395" data-name="Path 35395" d="M37.7,31.5s-1.2,0-1.2-1a4.154,4.154,0,0,0-1-3c-1.028-1.242-3.5-1-9-1-4,0-5,3-4,5,0,0,1,3,6,3C38.5,34.5,37.7,31.5,37.7,31.5Zm-6.2,0c-2,0-2-1-3-1h-2c-1,0-1,1-2,1s-1-3.733,2-3.733c2,0,7-.522,7,1.233C33.5,30,33.5,31.5,31.5,31.5Z" fill="#cb783f"/>
      <path id="Path_35396" data-name="Path 35396" d="M28.5,35c-5.3,0-6.429-3.206-6.474-3.342a3.792,3.792,0,0,1-.378-1.436.5.5,0,0,1,1-.066,2.953,2.953,0,0,0,.3,1.119C23.011,31.447,23.959,34,28.5,34c1.315,0,2.512-.053,3.556-.158a.5.5,0,1,1,.1,1c-1.076.108-2.306.163-3.655.163Z" fill="#f12e39"/>
      <path id="Path_35397" data-name="Path 35397" d="M40.5,16.5s-1,4-2,4-1-3-1-3a10.759,10.759,0,0,1-4-5c-7-1-10,0-10,0a10.945,10.945,0,0,1-2,4v-6h19Z" fill="#cb783f"/>
      <g id="Group_5266" data-name="Group 5266">
        <path id="Path_35398" data-name="Path 35398" d="M22.119,30.656a.5.5,0,0,1-.449-.279A6.448,6.448,0,0,1,21,27.5v-11a.5.5,0,0,1,1,0v11a5.455,5.455,0,0,0,.566,2.435.5.5,0,0,1-.447.721Z" fill="#f12e39"/>
        <path id="Path_35399" data-name="Path 35399" d="M41.5,26h-2a.5.5,0,0,1,0-1h2A2.5,2.5,0,0,0,44,22.5v-2A2.5,2.5,0,0,0,41.5,18h-1a.5.5,0,0,1,0-1h1A3.5,3.5,0,0,1,45,20.5v2A3.5,3.5,0,0,1,41.5,26Z" fill="#f12e39"/>
        <path id="Path_35400" data-name="Path 35400" d="M30.5,30h-5a.5.5,0,0,1,0-1h5a.459.459,0,0,0,.5-.506A.5.5,0,0,1,31.5,28h.006a.5.5,0,0,1,.494.5A1.458,1.458,0,0,1,30.5,30Z" fill="#f12e39"/>
        <path id="Path_35401" data-name="Path 35401" d="M25.5,26c-1.153,0-2.5-.393-2.5-1.5,0-1.064,1.71-4.538,2.053-5.224a.5.5,0,1,1,.9.447A23.413,23.413,0,0,0,24,24.5c0,.3.9.5,1.5.5a.5.5,0,0,1,0,1Z" fill="#f12e39"/>
        <path id="Path_35402" data-name="Path 35402" d="M30.5,23a.5.5,0,0,1-.5-.5v-3a.5.5,0,0,1,1,0v3A.5.5,0,0,1,30.5,23Z" fill="#f12e39"/>
        <path id="Path_35403" data-name="Path 35403" d="M23.5,23a.5.5,0,0,1-.5-.5v-3a.5.5,0,0,1,1,0v3A.5.5,0,0,1,23.5,23Z" fill="#f12e39"/>
        <path id="Path_35404" data-name="Path 35404" d="M33.5,19a.5.5,0,0,1-.354-.146c-2.588-2.586-4.228-1.062-4.3-1a.5.5,0,0,1-.7-.71c.023-.024,2.391-2.315,5.707,1a.5.5,0,0,1,0,.707A.494.494,0,0,1,33.5,19Z" fill="#f12e39"/>
        <path id="Path_35405" data-name="Path 35405" d="M24.5,18a.5.5,0,0,1-.353-.145,1.723,1.723,0,0,0-2.342-.082.5.5,0,0,1-.616-.788,2.717,2.717,0,0,1,3.664.162A.5.5,0,0,1,24.5,18Z" fill="#f12e39"/>
        <path id="Path_35406" data-name="Path 35406" d="M29.444,36a.5.5,0,0,1-.5-.5v-1a.5.5,0,0,1,1,0v1A.5.5,0,0,1,29.444,36Z" fill="#f12e39"/>
      </g>
      <path id="Path_35407" data-name="Path 35407" d="M13.5,62.5h43v-2h-43Z" fill="#e678a0"/>
      <path id="Path_35408" data-name="Path 35408" d="M29.5,49.5l-2.028,13H36.5l-2-13Z" fill="#aad2ff"/>
      <path id="Path_35409" data-name="Path 35409" d="M27.784,60.5l-.312,2H36.5l-.308-2Z" fill="#96bef0"/>
      <path id="Path_35410" data-name="Path 35410" d="M46.5,63a.5.5,0,0,1-.5-.5v-12a.5.5,0,0,1,1,0v12A.5.5,0,0,1,46.5,63Z" fill="#e678a0"/>
      <path id="Path_35411" data-name="Path 35411" d="M17.5,63a.5.5,0,0,1-.5-.5v-11a.5.5,0,0,1,1,0v11A.5.5,0,0,1,17.5,63Z" fill="#e678a0"/>
      <path id="Path_35412" data-name="Path 35412" d="M29.444,36a.5.5,0,0,1-.5-.5v-1a.5.5,0,0,1,1,0v1A.5.5,0,0,1,29.444,36Z" fill="#f12e39"/>
      <path id="Path_35413" data-name="Path 35413" d="M31.5,41.5l8,5,4-9-4-3.588Z" fill="#fa8cb4"/>
      <path id="Path_35414" data-name="Path 35414" d="M39.5,33.912,37.132,35.4,42.5,39.5l1-2Z" fill="#ffa0c8"/>
      <path id="Path_35415" data-name="Path 35415" d="M31.5,41.5l-2.055-5.695L23.5,39.5l2,7Z" fill="#fa8cb4"/>
      <path id="Path_35416" data-name="Path 35416" d="M30.1,37.6l-.653-1.8L23.5,39.5l.489,1.711Z" fill="#ffa0c8"/>
      <path id="Path_35417" data-name="Path 35417" d="M56.5,63h-43a.5.5,0,0,1-.5-.5v-8c0-4.1,0-10.309,4.276-12.447l6-3,5.9-3.672a.5.5,0,1,1,.528.85l-5.944,3.695-6.041,3.022C14,44.809,14,50.641,14,54.5V62H56V54.5c0-4.889,0-8.75-3.8-11.6a45.184,45.184,0,0,0-8.886-4.936.491.491,0,0,1-.148-.092L39.5,34.58l-4.821,4.212a.5.5,0,1,1-.659-.753l5.155-4.5a.5.5,0,0,1,.663,0l3.935,3.53A45.286,45.286,0,0,1,52.8,42.1C57,45.25,57,49.537,57,54.5v8a.5.5,0,0,1-.5.5Z" fill="#f12e39"/>
      <path id="Path_35418" data-name="Path 35418" d="M34.808,51.5l-.308-2h-5l-.312,2Z" fill="#96bef0"/>
      <g id="Group_5267" data-name="Group 5267">
        <circle id="Ellipse_305" data-name="Ellipse 305" cx="1" cy="1" r="1" transform="translate(25 42)" fill="#ffe885"/>
        <circle id="Ellipse_306" data-name="Ellipse 306" cx="1" cy="1" r="1" transform="translate(38 42)" fill="#ffe885"/>
      </g>
    </g>
    <g id="_004-professions-and-jobs" data-name="004-professions-and-jobs" transform="translate(641 2820.133)">
      <path id="Path_35419" data-name="Path 35419" d="M43.5,37.5a45.367,45.367,0,0,1,9,5c4,3,4,7,4,12v8h-43v-8c0-4,0-10,4-12a59.462,59.462,0,0,1,7-3Z" fill="#fa8cb4"/>
      <path id="Path_35420" data-name="Path 35420" d="M13.5,62.5h43v-2h-43Z" fill="#e678a0"/>
      <path id="Path_35421" data-name="Path 35421" d="M52.5,42.5a45.367,45.367,0,0,0-9-5l-19,2a59.462,59.462,0,0,0-7,3c-4,2-4,8-4,12v2c0-4,0-10,4-12a59.462,59.462,0,0,1,7-3l19-2a45.367,45.367,0,0,1,9,5c4,3,4,7,4,12v-2C56.5,49.5,56.5,45.5,52.5,42.5Z" fill="#ffa0c8"/>
      <g id="Group_5268" data-name="Group 5268">
        <path id="Path_35422" data-name="Path 35422" d="M46.5,63a.5.5,0,0,1-.5-.5v-12a.5.5,0,0,1,1,0v12A.5.5,0,0,1,46.5,63Z" fill="#e678a0"/>
        <path id="Path_35423" data-name="Path 35423" d="M17.5,63a.5.5,0,0,1-.5-.5v-12a.5.5,0,0,1,1,0v12A.5.5,0,0,1,17.5,63Z" fill="#e678a0"/>
        <path id="Path_35424" data-name="Path 35424" d="M30.5,63a.5.5,0,0,1-.5-.5v-12a.5.5,0,0,1,1,0v12A.5.5,0,0,1,30.5,63Z" fill="#e678a0"/>
      </g>
      <path id="Path_35425" data-name="Path 35425" d="M29.445,34.5v9L31,49l3-5,5.5-.5V26.74Z" fill="#ffb4be"/>
      <path id="Path_35426" data-name="Path 35426" d="M29.444,44a.5.5,0,0,1-.5-.5v-9a.5.5,0,0,1,1,0v9A.5.5,0,0,1,29.444,44Z" fill="#f12e39"/>
      <path id="Path_35427" data-name="Path 35427" d="M29.445,36.412S25.5,37.5,24.5,40.5c-.544,1.633-1.089,3.86-1.472,5.549a.207.207,0,0,0,.385.142c.5-.887,1.19-1.691,2.087-1.691,2,0,5,6,5,6Z" fill="#fa8cb4"/>
      <path id="Path_35428" data-name="Path 35428" d="M29.585,38.281l-.14-1.869S25.5,37.5,24.5,40.5c-.084.253-.169.525-.253.8A23.609,23.609,0,0,1,29.585,38.281Z" fill="#ffa0c8"/>
      <path id="Path_35429" data-name="Path 35429" d="M30.5,51a.5.5,0,0,1-.447-.276C28.864,48.347,26.665,45,25.5,45c-.7,0-1.285.78-1.65,1.435a.707.707,0,0,1-1.309-.5c.146-.645.257-1.359.374-2.115a21.786,21.786,0,0,1,.717-3.437c1.073-3.22,5.5-4.409,5.687-4.458a.5.5,0,0,1,.625.446L31,50.463a.5.5,0,0,1-.366.52A.566.566,0,0,1,30.5,51Zm-5-7c1.482,0,3.2,2.378,4.33,4.249l-.837-11.167c-1.16.413-3.719,1.54-4.412,3.621a21.18,21.18,0,0,0-.678,3.274c-.046.294-.091.582-.137.862A2.368,2.368,0,0,1,25.5,44Z" fill="#e678a0"/>
      <path id="Path_35430" data-name="Path 35430" d="M30.5,51a.5.5,0,0,1-.5-.462L28.993,37.081a7.938,7.938,0,0,0-3.885,2.671.5.5,0,0,1-.839-.544c1.519-2.341,4.907-3.243,5.05-3.28a.5.5,0,0,1,.625.446L31,50.462a.5.5,0,0,1-.462.536.262.262,0,0,1-.039,0Z" fill="#f12e39"/>
      <path id="Path_35431" data-name="Path 35431" d="M39.5,44a.5.5,0,0,1-.5-.5V26.74a.5.5,0,0,1,1,0V43.5A.5.5,0,0,1,39.5,44Z" fill="#f12e39"/>
      <path id="Path_35432" data-name="Path 35432" d="M30.5,50.5s3-6,5-9,5-7,5-7l3,3s-.642,5.78-1.412,9.62a1,1,0,0,1-1.772.407c-1.827-2.495-5.571-5.516-9.816,2.973Z" fill="#fa8cb4"/>
      <path id="Path_35433" data-name="Path 35433" d="M43.261,39.281c.149-1.068.239-1.781.239-1.781l-3-3s-.4.531-1,1.346Z" fill="#ffa0c8"/>
      <path id="Path_35434" data-name="Path 35434" d="M30.5,51a.5.5,0,0,1-.448-.724h0c0-.009.009-.017.013-.026.25-.5,3.071-6.107,5.018-9.026,1.984-2.977,4.986-6.982,5.016-7.022a.5.5,0,0,1,.365-.2.5.5,0,0,1,.389.145l3,3a.5.5,0,0,1,.144.409c-.007.058-.654,5.846-1.419,9.663a1.483,1.483,0,0,1-1.152,1.17,1.462,1.462,0,0,1-1.513-.566c-.862-1.178-2.215-2.561-3.833-2.418-1.693.144-3.4,1.893-5.073,5.2-.036.074-.058.115-.06.12A.5.5,0,0,1,30.5,51Zm5.8-6.6c1.533,0,3.055.975,4.419,2.837a.463.463,0,0,0,.49.18.5.5,0,0,0,.388-.39c.669-3.336,1.248-8.211,1.378-9.338l-2.42-2.42c-.846,1.139-3.066,4.155-4.64,6.515-.63.945-1.366,2.2-2.075,3.474A4.359,4.359,0,0,1,36,44.409c.1-.01.2-.014.305-.014Z" fill="#e678a0"/>
      <path id="Path_35435" data-name="Path 35435" d="M30.5,51a.5.5,0,0,1-.448-.724c.123-.246,3.037-6.062,5.031-9.054S40.069,34.24,40.1,34.2a.5.5,0,0,1,.365-.2.5.5,0,0,1,.389.145l3,3a.5.5,0,0,1-.707.707l-2.591-2.591c-.846,1.139-3.066,4.155-4.64,6.515-1.96,2.939-4.938,8.887-4.969,8.946A.5.5,0,0,1,30.5,51Z" fill="#f12e39"/>
      <circle id="Ellipse_307" data-name="Ellipse 307" cx="1" cy="1" r="1" transform="translate(32 51)" fill="#ffe885"/>
      <circle id="Ellipse_308" data-name="Ellipse 308" cx="1" cy="1" r="1" transform="translate(32 58)" fill="#ffe885"/>
      <path id="Path_35436" data-name="Path 35436" d="M56.5,63h-43a.5.5,0,0,1-.5-.5v-8c0-4.1,0-10.309,4.276-12.447a60.545,60.545,0,0,1,7.065-3.027.5.5,0,1,1,.317.948,59.691,59.691,0,0,0-6.935,2.973C14,44.809,14,50.641,14,54.5V62H56V54.5c0-4.889,0-8.75-3.8-11.6a45.214,45.214,0,0,0-8.886-4.936.5.5,0,0,1,.371-.929A45.36,45.36,0,0,1,52.8,42.1C57,45.25,57,49.537,57,54.5v8a.5.5,0,0,1-.5.5Z" fill="#f12e39"/>
      <path id="Path_35437" data-name="Path 35437" d="M40.126,18.5c-.457,2.069-1.332,5-2.626,5-2,0-2-6-2-6h-10c-.665,0-2.169.2-3.565.131-3-.138-6.435-2.126-6.435-6.131,0-6,2-8,3-7s3,3,4,3c0,0-1.581-2.419,0-4,1-1,3,4,7,4s15-1,15,6-2,12-2,15-1.387,2.911-4.193,2.911Z" fill="#cb773f"/>
      <path id="Path_35438" data-name="Path 35438" d="M42.431,27.5c-.3,1.9-1.572,1.913-3.842,1.911l-.282,2c2.807,0,4.193.089,4.193-2.911a9.854,9.854,0,0,1,.07-1Z" fill="#cb773f"/>
      <path id="Path_35439" data-name="Path 35439" d="M35.5,16.5a1,1,0,0,0-1-1h-9c-.665,0-2.169.2-3.565.131-2.816-.13-6.024-1.9-6.4-5.436-.022.415-.037.844-.037,1.305,0,4.005,3.44,5.992,6.435,6.131,1.4.065,2.9-.131,3.565-.131h10Z" fill="#cb783f"/>
      <path id="Path_35440" data-name="Path 35440" d="M22.5,5.5c1-1,3,4,7,4,3.859,0,14.228-.928,14.956,5.29.015-.43.044-.844.044-1.29,0-7-11-6-15-6s-6-5-7-4a2.7,2.7,0,0,0-.53,2.815A2.32,2.32,0,0,1,22.5,5.5Z" fill="#dc8c50"/>
      <path id="Path_35441" data-name="Path 35441" d="M18.5,6.5c1,1,3,3,4,3a4.765,4.765,0,0,1-.7-2.226A17.029,17.029,0,0,1,18.5,4.5c-1-1-3,1-3,7,0,.2.031.368.047.552C15.841,7.189,17.586,5.586,18.5,6.5Z" fill="#dc8c50"/>
      <path id="Path_35442" data-name="Path 35442" d="M21.5,17.5v11a6,6,0,0,0,6,6h5a7,7,0,0,0,7-7v-1h2a3,3,0,0,0,3-3v-2a3,3,0,0,0-3-3h-2l-3-1Z" fill="#ffc8d2"/>
      <path id="Path_35443" data-name="Path 35443" d="M23.5,25a.5.5,0,0,1-.5-.5v-3a.5.5,0,0,1,1,0v3A.5.5,0,0,1,23.5,25Z" fill="#f12e39"/>
      <path id="Path_35444" data-name="Path 35444" d="M33.5,21a.5.5,0,0,1-.354-.146c-2.586-2.585-4.228-1.062-4.3-1a.5.5,0,0,1-.7-.71c.023-.023,2.394-2.314,5.707,1A.5.5,0,0,1,33.5,21Z" fill="#f12e39"/>
      <path id="Path_35445" data-name="Path 35445" d="M24.5,20a.5.5,0,0,1-.352-.145,1.727,1.727,0,0,0-2.344-.083.5.5,0,0,1-.615-.788,2.717,2.717,0,0,1,3.664.162.5.5,0,0,1,0,.707A.5.5,0,0,1,24.5,20Z" fill="#f12e39"/>
      <path id="Path_35446" data-name="Path 35446" d="M40.126,18.5c-.457,2.069-1.332,5-2.626,5-2,0-2-7-2-7Z" fill="#cb783f"/>
      <g id="Group_5269" data-name="Group 5269">
        <path id="Path_35447" data-name="Path 35447" d="M41.5,27h-2a.5.5,0,0,1,0-1h2A2.5,2.5,0,0,0,44,23.5v-2A2.5,2.5,0,0,0,41.5,19h-1a.5.5,0,0,1,0-1h1A3.5,3.5,0,0,1,45,21.5v2A3.5,3.5,0,0,1,41.5,27Z" fill="#f12e39"/>
        <path id="Path_35448" data-name="Path 35448" d="M32.5,35h-5A6.508,6.508,0,0,1,21,28.5v-11a.5.5,0,0,1,1,0v11A5.506,5.506,0,0,0,27.5,34h5a.5.5,0,0,1,0,1Z" fill="#f12e39"/>
        <path id="Path_35449" data-name="Path 35449" d="M30.5,31h-5a.5.5,0,0,1,0-1h5a.46.46,0,0,0,.5-.506A.543.543,0,0,1,31.506,29a.5.5,0,0,1,.494.5A1.458,1.458,0,0,1,30.5,31Z" fill="#f12e39"/>
        <path id="Path_35450" data-name="Path 35450" d="M25.5,28c-1.153,0-2.5-.393-2.5-1.5,0-1.064,1.71-4.538,2.053-5.224a.5.5,0,1,1,.9.447A23.413,23.413,0,0,0,24,26.5c0,.3.9.5,1.5.5a.5.5,0,0,1,0,1Z" fill="#f12e39"/>
        <path id="Path_35451" data-name="Path 35451" d="M30.5,25a.5.5,0,0,1-.5-.5v-3a.5.5,0,0,1,1,0v3A.5.5,0,0,1,30.5,25Z" fill="#f12e39"/>
        <path id="Path_35452" data-name="Path 35452" d="M39.5,31.905a.5.5,0,0,1-.01-1C41.35,30.868,42,30.663,42,28.5a12.826,12.826,0,0,1,.216-2.13.509.509,0,0,1,.576-.41.5.5,0,0,1,.41.577A11.936,11.936,0,0,0,43,28.5c0,3.084-1.581,3.367-3.49,3.405H39.5Z" fill="#f12e39"/>
        <path id="Path_35453" data-name="Path 35453" d="M44,20.192a.5.5,0,0,1-.495-.576A39.772,39.772,0,0,0,44,13.5a4.257,4.257,0,0,0-1.269-3.21c-2.56-2.506-8.37-2.382-11.847-2.31C30.366,7.99,29.9,8,29.5,8c-2.566,0-4.36-1.869-5.547-3.105a4.835,4.835,0,0,0-1.16-1.027c-1.211,1.257.071,3.274.126,3.36A.5.5,0,0,1,22.5,8c-1.114,0-2.831-1.624-4.354-3.146a.265.265,0,0,0-.334-.068C17.084,5.087,16,7.124,16,11.5c0,2.77,1.88,4.519,5.587,5.2a.5.5,0,1,1-.18.983C17.216,16.914,15,14.776,15,11.5c0-4.9,1.309-7.174,2.43-7.639a1.255,1.255,0,0,1,1.424.285,24.729,24.729,0,0,0,2.653,2.378,3.188,3.188,0,0,1,.64-3.378.906.906,0,0,1,.651-.279h.01c.592.006,1.126.563,1.867,1.334C25.808,5.383,27.36,7,29.5,7c.393,0,.853-.01,1.364-.021,3.627-.077,9.706-.2,12.566,2.6A5.278,5.278,0,0,1,45,13.5a40.633,40.633,0,0,1-.5,6.269.5.5,0,0,1-.493.423Z" fill="#f12e39"/>
      </g>
    </g>
    <g id="_005-man-2" data-name="005-man-2" transform="translate(506 3081.272)">
      <path id="Path_35454" data-name="Path 35454" d="M39.026,30.733A12.456,12.456,0,0,0,43.5,25.5l1-11s3-3-1-6-8.962-.607-13.481-3.8v9.8Z" fill="#cb773f"/>
      <path id="Path_35455" data-name="Path 35455" d="M43.5,37.5a45.367,45.367,0,0,1,9,5c4,3,4,7,4,12v8h-43v-8c0-4,0-10,4-12l6-3Z" fill="#fa8cb4"/>
      <path id="Path_35456" data-name="Path 35456" d="M13.5,62.5h43v-2h-43Z" fill="#e678a0"/>
      <path id="Path_35457" data-name="Path 35457" d="M52.5,42.5a45.367,45.367,0,0,0-9-5l-20,2-6,3c-4,2-4,8-4,12v2c0-4,0-10,4-12a72.337,72.337,0,0,0,7-4l18-1a41.72,41.72,0,0,1,10,5c4,3,4,7,4,12v-2C56.5,49.5,56.5,45.5,52.5,42.5Z" fill="#ffa0c8"/>
      <path id="Path_35458" data-name="Path 35458" d="M46.5,63a.5.5,0,0,1-.5-.5v-12a.5.5,0,0,1,1,0v12A.5.5,0,0,1,46.5,63Z" fill="#e678a0"/>
      <path id="Path_35459" data-name="Path 35459" d="M17.5,63a.5.5,0,0,1-.5-.5v-12a.5.5,0,0,1,1,0v12A.5.5,0,0,1,17.5,63Z" fill="#e678a0"/>
      <path id="Path_35460" data-name="Path 35460" d="M38.5,33.912V32.74L29.445,36.5V35.8L23.5,39.5l1.532,6.892a1,1,0,0,0,1.773.387l2.64-3.482v.2H32.5l5.929,4.235a1,1,0,0,0,1.521-.472L43.5,37.5Z" fill="#e678a0"/>
      <path id="Path_35461" data-name="Path 35461" d="M29.445,34.5v7H38.5V30.74Z" fill="#ffb4be"/>
      <path id="Path_35462" data-name="Path 35462" d="M21.5,12.5v16a6,6,0,0,0,6,6h5a7,7,0,0,0,7-7v-1h2a3,3,0,0,0,3-3v-2a3,3,0,0,0-3-3h-2l-4-4Z" fill="#ffc8d2"/>
      <g id="Group_5270" data-name="Group 5270">
        <path id="Path_35463" data-name="Path 35463" d="M23.5,25a.5.5,0,0,1-.5-.5v-3a.5.5,0,0,1,1,0v3A.5.5,0,0,1,23.5,25Z" fill="#f12e39"/>
        <path id="Path_35464" data-name="Path 35464" d="M33.5,21a.5.5,0,0,1-.354-.146c-2.588-2.586-4.228-1.062-4.3-1a.5.5,0,0,1-.7-.71c.023-.024,2.391-2.316,5.707,1a.5.5,0,0,1,0,.707A.494.494,0,0,1,33.5,21Z" fill="#f12e39"/>
        <path id="Path_35465" data-name="Path 35465" d="M24.5,20a.5.5,0,0,1-.353-.145,1.722,1.722,0,0,0-2.342-.082.5.5,0,1,1-.616-.788,2.717,2.717,0,0,1,3.664.162A.5.5,0,0,1,24.5,20Z" fill="#f12e39"/>
        <path id="Path_35466" data-name="Path 35466" d="M30.5,31h-5a.5.5,0,0,1,0-1h5a.459.459,0,0,0,.5-.506A.478.478,0,0,1,31.506,29a.5.5,0,0,1,.494.5A1.458,1.458,0,0,1,30.5,31Z" fill="#f12e39"/>
        <path id="Path_35467" data-name="Path 35467" d="M25.5,28c-1.153,0-2.5-.393-2.5-1.5,0-1.064,1.71-4.538,2.053-5.224a.5.5,0,1,1,.9.447A23.413,23.413,0,0,0,24,26.5c0,.3.9.5,1.5.5a.5.5,0,0,1,0,1Z" fill="#f12e39"/>
        <path id="Path_35468" data-name="Path 35468" d="M30.5,25a.5.5,0,0,1-.5-.5v-3a.5.5,0,0,1,1,0v3A.5.5,0,0,1,30.5,25Z" fill="#f12e39"/>
      </g>
      <path id="Path_35469" data-name="Path 35469" d="M32.5,41.5l6,4.288A1,1,0,0,0,40,45.38l3.5-7.88-5-3.588Z" fill="#fa8cb4"/>
      <path id="Path_35470" data-name="Path 35470" d="M29.445,41.3V35.806L23.5,39.5l1.45,5.076a1,1,0,0,0,1.758.329Z" fill="#fa8cb4"/>
      <path id="Path_35471" data-name="Path 35471" d="M42.812,39.049,43.5,37.5l-5-3.588-1.2,1.522Z" fill="#ffa0c8"/>
      <path id="Path_35472" data-name="Path 35472" d="M23.5,39.5l.485,1.7,5.46-3.393v-2Z" fill="#ffa0c8"/>
      <path id="Path_35473" data-name="Path 35473" d="M56.5,63h-43a.5.5,0,0,1-.5-.5v-8c0-4.1,0-10.309,4.276-12.447l6-3,5.668-3.525V34.5a.5.5,0,0,1,1,0v1.305a.5.5,0,0,1-.236.425l-5.944,3.695-6.041,3.022C14,44.809,14,50.641,14,54.5V62H56V54.5c0-4.889,0-8.75-3.8-11.6a45.184,45.184,0,0,0-8.886-4.936.518.518,0,0,1-.106-.058l-5-3.588A.5.5,0,0,1,38,33.912V30.74a.5.5,0,0,1,1,0v2.915l4.743,3.4A45.267,45.267,0,0,1,52.8,42.1C57,45.25,57,49.537,57,54.5v8a.5.5,0,0,1-.5.5Z" fill="#f12e39"/>
      <path id="Path_35474" data-name="Path 35474" d="M31.5,54.5h-1a1,1,0,0,1-1-1v-12h3v12A1,1,0,0,1,31.5,54.5Z" fill="#e678a0"/>
      <path id="Path_35475" data-name="Path 35475" d="M29.5,42a.5.5,0,0,1-.5-.5v-7a.5.5,0,0,1,1,0v7A.5.5,0,0,1,29.5,42Z" fill="#f12e39"/>
      <path id="Path_35476" data-name="Path 35476" d="M38.5,31.6a.49.49,0,0,1-.257-.072.5.5,0,0,1-.17-.686A6.493,6.493,0,0,0,39,27.5v-1a.5.5,0,0,1,.5-.5h2A2.5,2.5,0,0,0,44,23.5v-2A2.5,2.5,0,0,0,41.5,19h-1a.5.5,0,0,1,0-1h1A3.5,3.5,0,0,1,45,21.5v2A3.5,3.5,0,0,1,41.5,27H40v.5a7.489,7.489,0,0,1-1.069,3.86A.5.5,0,0,1,38.5,31.6Z" fill="#f12e39"/>
      <path id="Path_35477" data-name="Path 35477" d="M45.414,12.929c.364-1.15.274-2.788-1.914-4.429-4-3-8.962-.607-13.481-3.8v2c4.519,3.2,9.481.8,13.481,3.8A5.019,5.019,0,0,1,45.414,12.929Z" fill="#dc8c50"/>
      <path id="Path_35478" data-name="Path 35478" d="M22.788,14.5s-1.957,0-2.935-4,1.957-7,2.935-8,1.957,1,2.935,2c0,0,0-2,.978-2s2.935,2,5.871,4a6.769,6.769,0,0,1,2.935,8Z" fill="#cb773f"/>
      <path id="Path_35479" data-name="Path 35479" d="M22.788,4.5c.978-1,1.957,1,2.935,2,0,0,0-2,.978-2s2.935,3.378,6.454,3.864a18.745,18.745,0,0,0,2.009.144A8.785,8.785,0,0,0,32.571,6.5c-2.935-2-4.892-4-5.871-4s-.978,2-.978,2c-.978-1-1.957-3-2.935-2-.928.948-3.608,3.7-3.051,7.388A10.219,10.219,0,0,1,22.788,4.5Z" fill="#dc8c50"/>
      <path id="Path_35480" data-name="Path 35480" d="M25.5,15a.5.5,0,0,1-.277-.084A6.919,6.919,0,0,1,22,9.5a.5.5,0,0,1,.5-.5h0a.5.5,0,0,1,.5.5,5.921,5.921,0,0,0,2.777,4.586A.5.5,0,0,1,25.5,15Z" fill="#dc8c50"/>
      <path id="Path_35481" data-name="Path 35481" d="M30.616,15a.5.5,0,0,1-.357-.15,17.647,17.647,0,0,1-3.027-4.13.5.5,0,0,1,.9-.439,16.943,16.943,0,0,0,2.844,3.871.5.5,0,0,1-.358.848Z" fill="#dc8c50"/>
      <path id="Path_35482" data-name="Path 35482" d="M35.5,14.5c2,2,2,7,3,8s2-1,2-5v-3Z" fill="#cb773f"/>
      <g id="Group_5271" data-name="Group 5271">
        <path id="Path_35483" data-name="Path 35483" d="M22.5,15c-.1,0-2.4-.05-3.485-4.379-1.069-4.274,2.092-7.436,3.131-8.475a1.287,1.287,0,0,1,.992-.417c.77.042,1.368.791,2,1.583l.007.009C25.348,2.589,25.768,2,26.5,2c.787,0,1.788.765,3.3,1.922q.441.337.934.709a.5.5,0,1,1-.6.8c-.332-.248-.645-.488-.941-.714A8.82,8.82,0,0,0,26.5,3c-.3,0-.5.9-.5,1.5a.5.5,0,0,1-.854.354,11.2,11.2,0,0,1-.787-.916c-.4-.5-.953-1.192-1.276-1.21-.025,0-.1-.005-.229.126-.94.94-3.8,3.8-2.869,7.525C20.861,13.881,22.5,14,22.511,14a.505.505,0,0,1,.482.512A.494.494,0,0,1,22.5,15Z" fill="#f12e39"/>
        <path id="Path_35484" data-name="Path 35484" d="M32.5,35h-5A6.508,6.508,0,0,1,21,28.5v-11a4.875,4.875,0,0,1,1.146-3.354.5.5,0,0,1,.707.707A3.907,3.907,0,0,0,22,17.5v11A5.506,5.506,0,0,0,27.5,34h5a.5.5,0,0,1,0,1Z" fill="#f12e39"/>
        <path id="Path_35485" data-name="Path 35485" d="M44.013,20.362a.362.362,0,0,1-.046,0,.5.5,0,0,1-.453-.543L44,14.455a.509.509,0,0,1,.143-.307,3.492,3.492,0,0,0,.928-2.438A4.044,4.044,0,0,0,43.2,8.9c-1.855-1.391-3.959-1.552-6.186-1.722-2.4-.183-4.879-.373-7.284-2.073a.5.5,0,1,1,.577-.817c2.179,1.541,4.52,1.72,6.783,1.893S41.712,6.534,43.8,8.1a4.968,4.968,0,0,1,2.271,3.548,4.408,4.408,0,0,1-1.088,3.063l-.472,5.2a.5.5,0,0,1-.5.456Z" fill="#f12e39"/>
        <path id="Path_35486" data-name="Path 35486" d="M39.026,31.233a.5.5,0,0,1-.253-.932,11.59,11.59,0,0,0,4.1-4.641.5.5,0,0,1,.892.45,12.6,12.6,0,0,1-4.485,5.055.487.487,0,0,1-.25.068Z" fill="#f12e39"/>
      </g>
    </g>
    <g id="_006-professions-and-jobs-1" data-name="006-professions-and-jobs-1" transform="translate(1342 3081.504)">
      <path id="Path_35487" data-name="Path 35487" d="M29.5,36.361s-2,1.139-6,3.139a44.173,44.173,0,0,0-8,3c-4,2-4,8-4,12v8h47v-8c0-5,0-9-4-12s-11-5-11-5a51.953,51.953,0,0,0-5-3Z" fill="#fa8cb4"/>
      <g id="Group_5272" data-name="Group 5272">
        <path id="Path_35488" data-name="Path 35488" d="M27.279,60.306a.492.492,0,0,1-.388-.185q-.7-.856-1.361-1.727a.5.5,0,1,1,.8-.607q.654.856,1.341,1.7a.5.5,0,0,1-.072.7.493.493,0,0,1-.315.113Z" fill="#e678a0"/>
        <path id="Path_35489" data-name="Path 35489" d="M24.038,56a.5.5,0,0,1-.41-.214q-.8-1.149-1.546-2.293a.5.5,0,0,1,.838-.545q.734,1.126,1.528,2.266a.5.5,0,0,1-.41.786Z" fill="#e678a0"/>
        <path id="Path_35490" data-name="Path 35490" d="M20.278,50.12a.5.5,0,0,1-.432-.247c-1.406-2.4-2.737-4.923-3.956-7.488a.5.5,0,0,1,.9-.43c1.207,2.54,2.524,5.034,3.916,7.412a.5.5,0,0,1-.431.753Z" fill="#e678a0"/>
        <path id="Path_35491" data-name="Path 35491" d="M19.468,62.86a.5.5,0,0,1-.371-.165,75.356,75.356,0,0,1-7.982-10.721.5.5,0,0,1,.85-.527A74.351,74.351,0,0,0,19.84,62.025a.5.5,0,0,1-.372.835Z" fill="#e678a0"/>
        <path id="Path_35492" data-name="Path 35492" d="M17.375,52.827a.5.5,0,0,1-.344-.862c2.464-2.338,5.059-4.676,7.711-6.952a.5.5,0,0,1,.651.76c-2.64,2.265-5.222,4.592-7.674,6.917a.5.5,0,0,1-.344.137Z" fill="#e678a0"/>
        <path id="Path_35493" data-name="Path 35493" d="M11.5,58.647a.5.5,0,0,1-.361-.847c.748-.776,1.6-1.642,2.541-2.583a.5.5,0,1,1,.7.709c-.94.936-1.783,1.795-2.525,2.567a.5.5,0,0,1-.36.154Z" fill="#e678a0"/>
        <path id="Path_35494" data-name="Path 35494" d="M17.5,63a.5.5,0,0,1-.382-.823c.036-.041,3.606-4.243,10.038-10.332a.5.5,0,0,1,.687.727c-6.388,6.046-9.927,10.21-9.962,10.252A.5.5,0,0,1,17.5,63Z" fill="#e678a0"/>
      </g>
      <path id="Path_35495" data-name="Path 35495" d="M54.5,42.5c-4-3-11-5-11-5q-.594-.4-1.131-.738a7.232,7.232,0,0,1,.759,2.495h0c.126.083.243.157.374.244,0,0,7,2,11,5s4,7,4,12v-2C58.5,49.5,58.5,45.5,54.5,42.5Z" fill="#ffa0c8"/>
      <path id="Path_35496" data-name="Path 35496" d="M25.218,38.631l.026-.013c-.537.274-1.106.563-1.745.883a44.173,44.173,0,0,0-8,3c-4,2-4,8-4,12v2c0-4,0-10,4-12a44.173,44.173,0,0,1,8-3c.4-.2.761-.383,1.12-.565a9.884,9.884,0,0,1,.6-2.305Z" fill="#ffa0c8"/>
      <g id="Group_5273" data-name="Group 5273">
        <path id="Path_35497" data-name="Path 35497" d="M39.513,62.91a.5.5,0,0,1-.371-.164,70.323,70.323,0,0,1-4.933-6.136.5.5,0,0,1,.813-.584,68.824,68.824,0,0,0,4.861,6.048.5.5,0,0,1-.37.836Z" fill="#e678a0"/>
        <path id="Path_35498" data-name="Path 35498" d="M49.5,62.9a.5.5,0,0,1-.371-.164,79.8,79.8,0,0,1-10.56-15.109.5.5,0,1,1,.876-.483A78.743,78.743,0,0,0,49.87,62.06a.5.5,0,0,1-.035.707A.493.493,0,0,1,49.5,62.9Z" fill="#e678a0"/>
        <path id="Path_35499" data-name="Path 35499" d="M58.5,61.763a.5.5,0,0,1-.378-.174c-.871-1.009-1.742-2.083-2.59-3.194a.5.5,0,0,1,.8-.607c.836,1.1,1.695,2.155,2.552,3.149a.5.5,0,0,1-.379.826Z" fill="#e678a0"/>
        <path id="Path_35500" data-name="Path 35500" d="M54.037,56a.5.5,0,0,1-.41-.214c-.688-.983-1.374-2.013-2.04-3.06a.5.5,0,0,1,.844-.537c.658,1.035,1.336,2.052,2.015,3.024a.5.5,0,0,1-.123.7.5.5,0,0,1-.286.091Z" fill="#e678a0"/>
        <path id="Path_35501" data-name="Path 35501" d="M50.28,50.124a.5.5,0,0,1-.432-.247c-.81-1.385-1.6-2.826-2.364-4.285a.5.5,0,0,1,.887-.461c.75,1.444,1.538,2.871,2.34,4.24a.5.5,0,0,1-.431.753Z" fill="#e678a0"/>
        <path id="Path_35502" data-name="Path 35502" d="M46.985,44a.5.5,0,0,1-.449-.278c-1.2-2.432-2.083-4.474-2.612-5.759a.5.5,0,0,1,.925-.381c.523,1.271,1.4,3.29,2.583,5.7a.5.5,0,0,1-.227.67.49.49,0,0,1-.22.052Z" fill="#e678a0"/>
        <path id="Path_35503" data-name="Path 35503" d="M42.656,47.993a.5.5,0,0,1-.332-.874c2.715-2.4,5.549-4.782,8.424-7.073a.5.5,0,1,1,.623.781c-2.861,2.281-5.682,4.65-8.385,7.04a.489.489,0,0,1-.33.126Z" fill="#e678a0"/>
        <path id="Path_35504" data-name="Path 35504" d="M34.575,55.535a.5.5,0,0,1-.351-.855c1.843-1.819,3.77-3.646,5.727-5.43a.5.5,0,1,1,.674.738c-1.948,1.775-3.865,3.593-5.7,5.4a.494.494,0,0,1-.351.145Z" fill="#e678a0"/>
        <path id="Path_35505" data-name="Path 35505" d="M47.5,52.708a.5.5,0,0,1-.343-.863c2.831-2.678,5.805-5.337,8.842-7.9a.5.5,0,0,1,.646.764c-3.022,2.553-5.983,5.2-8.8,7.864a.5.5,0,0,1-.345.136Z" fill="#e678a0"/>
        <path id="Path_35506" data-name="Path 35506" d="M37.5,63a.5.5,0,0,1-.381-.823c.023-.026,2.346-2.764,6.594-6.99a.5.5,0,1,1,.705.709c-4.214,4.193-6.513,6.9-6.536,6.928A.5.5,0,0,1,37.5,63Z" fill="#e678a0"/>
        <path id="Path_35507" data-name="Path 35507" d="M47.5,63a.5.5,0,0,1-.382-.823A150.067,150.067,0,0,1,58.009,51.043a.5.5,0,0,1,.684.73,149.1,149.1,0,0,0-10.811,11.05A.5.5,0,0,1,47.5,63Z" fill="#e678a0"/>
      </g>
      <path id="Path_35508" data-name="Path 35508" d="M42.35,36.749C40,35.25,38.5,34.5,38.5,34.5l-9,1.861s-1.414.805-4.243,2.251l-.019-.036A10.242,10.242,0,0,0,24.5,42.5c0,4,3,6,3,7v13h7.022v-13c0-1,5.978-1,7.978-6a7.819,7.819,0,0,0-.143-6.762Z" fill="#ffa0c8"/>
      <path id="Path_35509" data-name="Path 35509" d="M27.5,62.5h7v-2h-7Z" fill="#d2648c"/>
      <path id="Path_35510" data-name="Path 35510" d="M29.5,36.361s-3,2.139-3,5.139,6,6,11,3,5-7,1-10Z" fill="#ffb4be"/>
      <path id="Path_35511" data-name="Path 35511" d="M34.5,62.5h24v-2h-24Z" fill="#e678a0"/>
      <path id="Path_35512" data-name="Path 35512" d="M35.522,61.5V49.9c.23-.1.582-.22.882-.324,1.924-.668,5.505-1.911,7.024-5.708a9.054,9.054,0,0,0,.365-6.284c-.186-.057-.293-.088-.293-.088-.725-.484-1.389-.906-1.983-1.273a.988.988,0,0,0-.044.978,6.826,6.826,0,0,1,.1,5.923c-1.18,2.951-3.974,3.92-5.823,4.562-1.244.432-2.226.773-2.226,1.81v12a1,1,0,1,0,2,0Z" fill="#e678a0"/>
      <path id="Path_35513" data-name="Path 35513" d="M11.5,62.5h16v-2h-16Z" fill="#e678a0"/>
      <path id="Path_35514" data-name="Path 35514" d="M28.5,61.5v-12a3.543,3.543,0,0,0-.978-1.97A8.053,8.053,0,0,1,25.5,42.5a9.257,9.257,0,0,1,.663-3.543.988.988,0,0,0-.024-.8c-.636.329-1.382.709-2.2,1.119A11.665,11.665,0,0,0,23.5,42.5a10.034,10.034,0,0,0,2.422,6.229l.578.771v12a1,1,0,0,0,2,0Z" fill="#e678a0"/>
      <path id="Path_35515" data-name="Path 35515" d="M49.5,63a.5.5,0,0,1-.5-.5v-12a.5.5,0,0,1,1,0v12A.5.5,0,0,1,49.5,63Z" fill="#e678a0"/>
      <path id="Path_35516" data-name="Path 35516" d="M15.5,63a.5.5,0,0,1-.5-.5v-12a.5.5,0,0,1,1,0v12A.5.5,0,0,1,15.5,63Z" fill="#e678a0"/>
      <path id="Path_35517" data-name="Path 35517" d="M58.5,63h-47a.5.5,0,0,1-.5-.5v-8c0-4.1,0-10.309,4.276-12.447a44.361,44.361,0,0,1,8.048-3.024c3.907-1.954,5.908-3.09,5.928-3.1a.516.516,0,0,1,.146-.055l9-1.861a.49.49,0,0,1,.325.042,51.6,51.6,0,0,1,4.989,2.988c.812.237,7.237,2.172,11.087,5.059C59,45.25,59,49.536,59,54.5v8a.5.5,0,0,1-.5.5ZM12,62H58V54.5c0-4.889,0-8.75-3.8-11.6-3.879-2.909-10.769-4.9-10.837-4.92a.508.508,0,0,1-.14-.064,55.348,55.348,0,0,0-4.794-2.891l-8.75,1.81c-.389.219-2.4,1.333-5.954,3.112a.483.483,0,0,1-.1.038,44.087,44.087,0,0,0-7.9,2.962C12,44.809,12,50.641,12,54.5ZM23.5,39.5h.01Z" fill="#f12e39"/>
      <path id="Path_35518" data-name="Path 35518" d="M46.5,57a.5.5,0,0,1-.5-.5V55H39v1.5a.5.5,0,0,1-1,0v-2a.5.5,0,0,1,.5-.5h8a.5.5,0,0,1,.5.5v2A.5.5,0,0,1,46.5,57Z" fill="#e678a0"/>
      <path id="Path_35519" data-name="Path 35519" d="M29.445,34.5v9l10.055-1V26.74Z" fill="#ffb4be"/>
      <path id="Path_35520" data-name="Path 35520" d="M21.5,18.591s-2-2.182-2-4.364,2-4.364,4-5.455a7.153,7.153,0,0,1,5-4.364c4-1.091,10,0,12,3.273a6.59,6.59,0,0,1,5,6.545c0,5.454-3,10.909-3,10.909a5.74,5.74,0,0,1-1,3.273,4.651,4.651,0,0,1-3,1.091Z" fill="#ffe885"/>
      <path id="Path_35521" data-name="Path 35521" d="M23.5,10.773a7.153,7.153,0,0,1,5-4.364c4-1.091,10,0,12,3.273A6.6,6.6,0,0,1,45.452,15.4c.029-.389.048-.78.048-1.172a6.589,6.589,0,0,0-5-6.545c-2-3.273-8-4.364-12-3.273a7.153,7.153,0,0,0-5,4.364c-2,1.091-4,3.273-4,5.455a4.255,4.255,0,0,0,.143,1.014A7.944,7.944,0,0,1,23.5,10.773Z" fill="#fffa96"/>
      <path id="Path_35522" data-name="Path 35522" d="M38.5,30a.5.5,0,0,1-.27-.079l-17-10.909a.52.52,0,0,1-.1-.083c-.087-.095-2.131-2.352-2.131-4.7,0-2.386,2.089-4.647,4.092-5.8a7.691,7.691,0,0,1,5.276-4.5C32.525,2.8,38.587,3.889,40.817,7.25A7.092,7.092,0,0,1,46,14.228a26.335,26.335,0,0,1-3,11.04,5.964,5.964,0,0,1-1.129,3.479A5.118,5.118,0,0,1,38.5,30ZM21.828,18.207,38.639,29a3.954,3.954,0,0,0,2.493-.924A5.277,5.277,0,0,0,42,25.136a.5.5,0,0,1,.062-.24C42.091,24.843,45,19.484,45,14.228A6.048,6.048,0,0,0,40.392,8.17a.5.5,0,0,1-.319-.228c-1.85-3.027-7.567-4.111-11.442-3.051a6.611,6.611,0,0,0-4.654,4.028.506.506,0,0,1-.238.291C21.881,10.225,20,12.273,20,14.228a7.2,7.2,0,0,0,1.828,3.979Z" fill="#f12e39"/>
      <path id="Path_35523" data-name="Path 35523" d="M40.5,18.5h1a3,3,0,0,1,3,3v2a3,3,0,0,1-3,3h-2v1a7,7,0,0,1-7,7h-5a6,6,0,0,1-6-6v-11a6.459,6.459,0,0,1,3-5,2.938,2.938,0,0,0,3,3c3,0,5-3,7-3s5,2,4,4-2,4-1,5C39.5,23.5,40.5,18.5,40.5,18.5Z" fill="#ffc8d2"/>
      <path id="Path_35524" data-name="Path 35524" d="M31.5,31h-5a.5.5,0,0,1,0-1h5a.5.5,0,0,1,0,1Z" fill="#f12e39"/>
      <path id="Path_35525" data-name="Path 35525" d="M23.5,24a.5.5,0,0,1-.5-.5v-2a.5.5,0,0,1,1,0v2A.5.5,0,0,1,23.5,24Z" fill="#f12e39"/>
      <path id="Path_35526" data-name="Path 35526" d="M32.5,35h-5A6.508,6.508,0,0,1,21,28.5V18.163a.5.5,0,0,1,1,0V28.5A5.506,5.506,0,0,0,27.5,34h5A6.508,6.508,0,0,0,39,27.5v-1a.5.5,0,0,1,.5-.5h2A2.5,2.5,0,0,0,44,23.5v-2A2.5,2.5,0,0,0,41.5,19h-1a.5.5,0,0,1,0-1h1A3.5,3.5,0,0,1,45,21.5v2A3.5,3.5,0,0,1,41.5,27H40v.5A7.508,7.508,0,0,1,32.5,35Z" fill="#f12e39"/>
      <path id="Path_35527" data-name="Path 35527" d="M25.5,27c-1.153,0-2.5-.393-2.5-1.5,0-1.064,1.71-4.538,2.053-5.224a.5.5,0,1,1,.9.447A23.413,23.413,0,0,0,24,25.5c0,.3.9.5,1.5.5a.5.5,0,0,1,0,1Z" fill="#f12e39"/>
      <path id="Path_35528" data-name="Path 35528" d="M30.5,24a.5.5,0,0,1-.5-.5v-2a.5.5,0,0,1,1,0v2A.5.5,0,0,1,30.5,24Z" fill="#f12e39"/>
      <path id="Path_35529" data-name="Path 35529" d="M33.5,21a.5.5,0,0,1-.354-.146c-2.588-2.587-4.228-1.063-4.3-1a.5.5,0,0,1-.7-.71c.023-.023,2.391-2.315,5.707,1a.5.5,0,0,1,0,.707A.494.494,0,0,1,33.5,21Z" fill="#f12e39"/>
      <path id="Path_35530" data-name="Path 35530" d="M24.5,20a.5.5,0,0,1-.352-.145,1.728,1.728,0,0,0-2.343-.083.5.5,0,1,1-.616-.787,2.717,2.717,0,0,1,3.664.161.5.5,0,0,1,0,.707A.5.5,0,0,1,24.5,20Z" fill="#f12e39"/>
      <path id="Path_35531" data-name="Path 35531" d="M31.5,35.5h3a5,5,0,0,0,5-5V27.152c-1,0-2.916,2.627-4.008,3.848s-.992.477-.992-.493c0-1.94-3.6-2.506-6.838-2.506s-3.92,1.01-3.92,2.506.394,1.536-.242.93-.94-4.042-2-4.042V30.5a5,5,0,0,0,5,5Zm-.659-1.92c-.977-.109-.869-1.1-.869-1.58s-3.441-.529-3.441,0c0,.76-.211,1.409-1.214,1.363-.614-.029-.47-1.363-.47-1.363,0-1.6-.231-2.655,2.653-2.655s5.789.486,5.789,1.655-.644,2.78-2.448,2.58Z" fill="#ffe885"/>
      <path id="Path_35532" data-name="Path 35532" d="M31.5,36h-5A5.506,5.506,0,0,1,21,30.5V27.395a.5.5,0,0,1,1,0V30.5A4.5,4.5,0,0,0,26.5,35h5a.5.5,0,0,1,0,1Z" fill="#f12e39"/>
      <path id="Path_35533" data-name="Path 35533" d="M38.279,24.313a2.966,2.966,0,0,1-2.09-.924.5.5,0,1,1,.717-.7,1.848,1.848,0,0,0,1.917.541.5.5,0,0,1,.277.961A2.962,2.962,0,0,1,38.279,24.313Z" fill="#ffe885"/>
      <path id="Path_35534" data-name="Path 35534" d="M37.768,26.059a2.4,2.4,0,0,1-1.649-.581.5.5,0,0,1,.7-.713,1.715,1.715,0,0,0,1.651.186.5.5,0,0,1,.283.959,3.507,3.507,0,0,1-.987.149Z" fill="#ffe885"/>
      <path id="Path_35535" data-name="Path 35535" d="M29.5,42a.5.5,0,0,1-.5-.5v-6a.5.5,0,0,1,1,0v6A.5.5,0,0,1,29.5,42Z" fill="#f12e39"/>
      <path id="Path_35536" data-name="Path 35536" d="M39.5,35.62a.5.5,0,0,1-.5-.5V26.5a.5.5,0,0,1,1,0v8.62A.5.5,0,0,1,39.5,35.62Z" fill="#f12e39"/>
    </g>
    <g id="_007-professions-and-jobs-2" data-name="007-professions-and-jobs-2" transform="translate(917 2820.422)">
      <path id="Path_35537" data-name="Path 35537" d="M43.5,37.5a45.367,45.367,0,0,1,9,5c4,3,4,7,4,12v8h-43v-8c0-4,0-10,4-12a59.462,59.462,0,0,1,7-3Z" fill="#e678a0"/>
      <path id="Path_35538" data-name="Path 35538" d="M13.5,62.5h43v-2h-43Z" fill="#d2648c"/>
      <path id="Path_35539" data-name="Path 35539" d="M52.5,42.5a45.367,45.367,0,0,0-9-5l-19,2a59.462,59.462,0,0,0-7,3c-4,2-4,8-4,12v2c0-4,0-10,4-12a59.462,59.462,0,0,1,7-3l19-2a45.367,45.367,0,0,1,9,5c4,3,4,7,4,12v-2C56.5,49.5,56.5,45.5,52.5,42.5Z" fill="#fa8cb4"/>
      <path id="Path_35540" data-name="Path 35540" d="M46.5,63a.5.5,0,0,1-.5-.5v-12a.5.5,0,0,1,1,0v12A.5.5,0,0,1,46.5,63Z" fill="#d2648c"/>
      <path id="Path_35541" data-name="Path 35541" d="M17.5,63a.5.5,0,0,1-.5-.5v-12a.5.5,0,0,1,1,0v12A.5.5,0,0,1,17.5,63Z" fill="#d2648c"/>
      <path id="Path_35542" data-name="Path 35542" d="M30.5,63a.5.5,0,0,1-.5-.5v-12a.5.5,0,0,1,1,0v12A.5.5,0,0,1,30.5,63Z" fill="#d2648c"/>
      <path id="Path_35543" data-name="Path 35543" d="M29.445,34.5v9L31,49l3-5,5.5-.5V26.74Z" fill="#ffb4be"/>
      <path id="Path_35544" data-name="Path 35544" d="M29.444,44a.5.5,0,0,1-.5-.5v-9a.5.5,0,0,1,1,0v9A.5.5,0,0,1,29.444,44Z" fill="#f12e39"/>
      <path id="Path_35545" data-name="Path 35545" d="M29.445,36.412S25.5,37.5,24.5,40.5c-.544,1.633-1.089,3.86-1.472,5.549a.207.207,0,0,0,.385.142c.5-.887,1.19-1.691,2.087-1.691,2,0,5,6,5,6Z" fill="#e678a0"/>
      <path id="Path_35546" data-name="Path 35546" d="M29.585,38.281l-.14-1.869S25.5,37.5,24.5,40.5c-.084.253-.169.525-.253.8A23.609,23.609,0,0,1,29.585,38.281Z" fill="#fa8cb4"/>
      <path id="Path_35547" data-name="Path 35547" d="M30.5,51a.5.5,0,0,1-.447-.276C28.864,48.347,26.665,45,25.5,45c-.7,0-1.285.78-1.65,1.435a.707.707,0,0,1-1.31-.495c.146-.646.258-1.362.375-2.12a21.884,21.884,0,0,1,.717-3.434c1.073-3.22,5.5-4.409,5.686-4.458a.5.5,0,0,1,.625.446L31,50.462a.5.5,0,0,1-.366.52A.507.507,0,0,1,30.5,51Zm-5-7c1.482,0,3.2,2.378,4.33,4.249l-.837-11.167c-1.16.413-3.719,1.54-4.413,3.621a21.261,21.261,0,0,0-.677,3.271c-.046.295-.09.583-.137.866A2.365,2.365,0,0,1,25.5,44Z" fill="#d2648c"/>
      <path id="Path_35548" data-name="Path 35548" d="M30.5,51a.5.5,0,0,1-.5-.462L28.994,37.081a7.947,7.947,0,0,0-3.885,2.671.5.5,0,0,1-.838-.544c1.518-2.341,4.906-3.243,5.049-3.28a.5.5,0,0,1,.625.446L31,50.462A.5.5,0,0,1,30.54,51,.289.289,0,0,1,30.5,51Z" fill="#f12e39"/>
      <path id="Path_35549" data-name="Path 35549" d="M39.5,44a.5.5,0,0,1-.5-.5V26.74a.5.5,0,0,1,1,0V43.5A.5.5,0,0,1,39.5,44Z" fill="#f12e39"/>
      <path id="Path_35550" data-name="Path 35550" d="M30.5,50.5s3-6,5-9,5-7,5-7l3,3s-.642,5.78-1.412,9.62a1,1,0,0,1-1.772.407c-1.827-2.495-5.571-5.516-9.816,2.973Z" fill="#e678a0"/>
      <path id="Path_35551" data-name="Path 35551" d="M43.261,39.281c.149-1.068.239-1.781.239-1.781l-3-3s-.4.531-1,1.346Z" fill="#fa8cb4"/>
      <path id="Path_35552" data-name="Path 35552" d="M30.5,51a.5.5,0,0,1-.5-.5.489.489,0,0,1,.042-.2.163.163,0,0,1,.011-.023l0,0,.006-.013c.212-.424,3.062-6.1,5.022-9.037,1.985-2.977,4.986-6.982,5.016-7.022a.5.5,0,0,1,.364-.2.483.483,0,0,1,.389.145l3,3a.5.5,0,0,1,.144.409c-.006.058-.653,5.846-1.419,9.663a1.483,1.483,0,0,1-1.152,1.17,1.46,1.46,0,0,1-1.513-.566c-.863-1.178-2.231-2.555-3.833-2.418-1.694.143-3.4,1.894-5.076,5.205l-.058.115A.5.5,0,0,1,30.5,51Zm5.8-6.6c1.533,0,3.054.975,4.418,2.837a.464.464,0,0,0,.491.18.5.5,0,0,0,.387-.39c.669-3.336,1.249-8.211,1.378-9.338l-2.421-2.42c-.845,1.139-3.066,4.155-4.639,6.515-.63.945-1.366,2.2-2.075,3.474A4.363,4.363,0,0,1,36,44.409c.1-.01.2-.014.305-.014Z" fill="#d2648c"/>
      <path id="Path_35553" data-name="Path 35553" d="M30.5,51a.5.5,0,0,1-.447-.724c.123-.246,3.037-6.062,5.031-9.054S40.07,34.24,40.1,34.2a.5.5,0,0,1,.364-.2.483.483,0,0,1,.389.145l3,3a.5.5,0,0,1-.707.707l-2.591-2.591c-.845,1.139-3.066,4.155-4.639,6.515-1.959,2.939-4.939,8.887-4.969,8.946A.5.5,0,0,1,30.5,51Z" fill="#f12e39"/>
      <circle id="Ellipse_309" data-name="Ellipse 309" cx="1" cy="1" r="1" transform="translate(32 51)" fill="#f0dc78"/>
      <circle id="Ellipse_310" data-name="Ellipse 310" cx="1" cy="1" r="1" transform="translate(32 58)" fill="#f0dc78"/>
      <path id="Path_35554" data-name="Path 35554" d="M56.5,63h-43a.5.5,0,0,1-.5-.5v-8c0-4.1,0-10.309,4.276-12.447a60.63,60.63,0,0,1,7.065-3.027.5.5,0,0,1,.316.948,59.606,59.606,0,0,0-6.935,2.973C14,44.809,14,50.641,14,54.5V62H56V54.5c0-4.889,0-8.75-3.8-11.6a45.184,45.184,0,0,0-8.886-4.936.5.5,0,0,1,.371-.929A45.36,45.36,0,0,1,52.8,42.1C57,45.25,57,49.537,57,54.5v8a.5.5,0,0,1-.5.5Z" fill="#f12e39"/>
      <path id="Path_35555" data-name="Path 35555" d="M21.5,13.5v15a6,6,0,0,0,6,6h5a7,7,0,0,0,7-7v-1h3a2,2,0,0,0,2-2v-3a2,2,0,0,0-2-2h-2v-6Z" fill="#ffc8d2"/>
      <path id="Path_35556" data-name="Path 35556" d="M39.04,30.5c2.54,1,3.46-1,3.46-4H39.207Z" fill="#cb783f"/>
      <path id="Path_35557" data-name="Path 35557" d="M39.5,19.5l4.879.518.593-.518a9.472,9.472,0,0,0,.528-3c0-8-7-8-7-8-2-6-9-3-11-4-4.817-2.408-11-2-12,3s2,9,6,9c10,0,12-3,12-3,0,2,2,2,2,4S37.5,19.5,39.5,19.5Z" fill="#cb783f"/>
      <path id="Path_35558" data-name="Path 35558" d="M15.5,9.5c1-5,7.183-5.408,12-3,2,1,9-2,11,4a7.117,7.117,0,0,1,6.94,6.933,8.168,8.168,0,0,0,.06-.933c0-8-7-8-7-8-2-6-9-3-11-4-4.817-2.408-11-2-12,3a9.372,9.372,0,0,0-.134,2.878C15.4,10.089,15.441,9.8,15.5,9.5Z" fill="#dc8c50"/>
      <path id="Path_35559" data-name="Path 35559" d="M40.842,18.977a1.971,1.971,0,0,0-1.81-1.508C37.625,17.375,36.5,17,36.5,15.5c0-1.556-1.815-1.9-2.621-2.919a1,1,0,0,0-1.34-.255C31.166,13.214,28.048,14.5,21.5,14.5c-3.192,0-5.741-2.551-6.134-6.122-.5,4.582,2.371,8.122,6.134,8.122,10,0,12-3,12-3,0,2,2,2,2,4s2,2,4,2l1.5.159Z" fill="#be6432"/>
      <g id="Group_5274" data-name="Group 5274">
        <path id="Path_35560" data-name="Path 35560" d="M30.5,31h-5a.5.5,0,0,1,0-1h5a.459.459,0,0,0,.5-.506A.48.48,0,0,1,31.506,29a.5.5,0,0,1,.494.5A1.458,1.458,0,0,1,30.5,31Z" fill="#f12e39"/>
        <path id="Path_35561" data-name="Path 35561" d="M30.5,24a.5.5,0,0,1-.5-.5v-2a.5.5,0,0,1,1,0v2A.5.5,0,0,1,30.5,24Z" fill="#f12e39"/>
        <path id="Path_35562" data-name="Path 35562" d="M23.5,24a.5.5,0,0,1-.5-.5v-2a.5.5,0,0,1,1,0v2A.5.5,0,0,1,23.5,24Z" fill="#f12e39"/>
        <path id="Path_35563" data-name="Path 35563" d="M33.5,21a.5.5,0,0,1-.354-.146c-2.588-2.586-4.228-1.062-4.3-1a.5.5,0,0,1-.7-.71c.023-.023,2.391-2.316,5.707,1a.5.5,0,0,1,0,.707A.494.494,0,0,1,33.5,21Z" fill="#f12e39"/>
        <path id="Path_35564" data-name="Path 35564" d="M24.5,20a.5.5,0,0,1-.353-.145,1.723,1.723,0,0,0-2.342-.082.5.5,0,1,1-.616-.788,2.717,2.717,0,0,1,3.664.162A.5.5,0,0,1,24.5,20Z" fill="#f12e39"/>
        <path id="Path_35565" data-name="Path 35565" d="M33.5,26h-6a.5.5,0,0,1-.5-.5v-3a.5.5,0,0,1,1,0V25h5V22.5a.5.5,0,0,1,.5-.5h5a.5.5,0,0,1,0,1H34v2.5A.5.5,0,0,1,33.5,26Z" fill="#f12e39"/>
        <path id="Path_35566" data-name="Path 35566" d="M42.5,27h-3a.5.5,0,0,1,0-1h3A1.5,1.5,0,0,0,44,24.5v-3A1.5,1.5,0,0,0,42.5,20h-2a.5.5,0,0,1,0-1h2A2.5,2.5,0,0,1,45,21.5v3A2.5,2.5,0,0,1,42.5,27Z" fill="#f12e39"/>
        <path id="Path_35567" data-name="Path 35567" d="M32.5,35h-5A6.508,6.508,0,0,1,21,28.5v-12a.5.5,0,0,1,1,0v12A5.506,5.506,0,0,0,27.5,34h5a.5.5,0,0,1,0,1Z" fill="#f12e39"/>
        <path id="Path_35568" data-name="Path 35568" d="M40.246,31.261a3.4,3.4,0,0,1-.873-.124.5.5,0,0,1,.26-.966,1.524,1.524,0,0,0,1.393-.16c.628-.482.974-1.729.974-3.511a.5.5,0,0,1,1,0c0,2.162-.46,3.61-1.367,4.305a2.219,2.219,0,0,1-1.387.456Z" fill="#f12e39"/>
        <path id="Path_35569" data-name="Path 35569" d="M44.416,21.45a.5.5,0,0,1-.2-.041.5.5,0,0,1-.261-.657A10.7,10.7,0,0,0,45,16.5C45,9.085,38.766,9,38.5,9a.5.5,0,0,1-.474-.342c-1.281-3.843-4.8-3.645-7.63-3.487a6.912,6.912,0,0,1-3.12-.224c-3.062-1.531-6.493-1.809-8.74-.709A4.544,4.544,0,0,0,15.99,7.6a7.642,7.642,0,0,0,1.345,6.389A5.318,5.318,0,0,0,21.5,16a.5.5,0,1,1,0,1,6.3,6.3,0,0,1-4.938-2.379A8.629,8.629,0,0,1,15.01,7.4,5.568,5.568,0,0,1,18.1,3.34c2.518-1.232,6.3-.952,9.626.713a6.764,6.764,0,0,0,2.616.12c2.765-.154,6.908-.388,8.521,3.85C40.357,8.162,46,9.175,46,16.5a11.626,11.626,0,0,1-1.125,4.648.5.5,0,0,1-.459.3Z" fill="#f12e39"/>
      </g>
      <g id="Group_5275" data-name="Group 5275">
        <path id="Path_35570" data-name="Path 35570" d="M38.5,15a.5.5,0,0,1-.484-.379,3.637,3.637,0,0,0-1.555-2.445,2.5,2.5,0,0,0-1.805-.2.5.5,0,0,1-.314-.949,3.479,3.479,0,0,1,2.588.268,4.554,4.554,0,0,1,2.055,3.085A.5.5,0,0,1,38.5,15Z" fill="#be6432"/>
        <path id="Path_35571" data-name="Path 35571" d="M41.5,14a.5.5,0,0,1-.484-.379,3.637,3.637,0,0,0-1.555-2.445,2.5,2.5,0,0,0-1.805-.2.5.5,0,0,1-.314-.949,3.479,3.479,0,0,1,2.588.268,4.554,4.554,0,0,1,2.055,3.085A.5.5,0,0,1,41.5,14Z" fill="#be6432"/>
        <path id="Path_35572" data-name="Path 35572" d="M35.5,10a.5.5,0,0,1-.354-.146S34.2,9,31.5,9a12.462,12.462,0,0,1-3.125-.345.5.5,0,0,1,.25-.968A11.469,11.469,0,0,0,31.5,8c3.117,0,4.236,1.029,4.354,1.146A.5.5,0,0,1,35.5,10Z" fill="#be6432"/>
        <path id="Path_35573" data-name="Path 35573" d="M26.5,8a.5.5,0,0,1-.354-.146,6.148,6.148,0,0,0-2.777-1.446.5.5,0,0,1,.261-.965,7.1,7.1,0,0,1,3.223,1.7A.5.5,0,0,1,26.5,8Z" fill="#be6432"/>
        <path id="Path_35574" data-name="Path 35574" d="M31.5,12a.5.5,0,0,1-.223-.053c-1.87-.935-3.891.146-5.13-1.094C23.8,8.5,19.6,8.991,19.562,9A.5.5,0,0,1,19.44,8c.192-.023,4.725-.547,7.415,2.143.75.75,2.779-.139,4.87.906A.5.5,0,0,1,31.5,12Z" fill="#be6432"/>
        <path id="Path_35575" data-name="Path 35575" d="M38.5,25h-2a.5.5,0,0,1,0-1h2a.5.5,0,0,1,0,1Z" fill="#be6432"/>
        <path id="Path_35576" data-name="Path 35576" d="M38.5,21h-2a.5.5,0,0,1,0-1h2a.5.5,0,0,1,0,1Z" fill="#be6432"/>
        <path id="Path_35577" data-name="Path 35577" d="M37.5,27h-1a.5.5,0,0,1,0-1h1a.5.5,0,0,1,0,1Z" fill="#be6432"/>
      </g>
      <path id="Path_35578" data-name="Path 35578" d="M23.5,26h-4a.5.5,0,0,1-.5-.5v-5a.5.5,0,0,1,1,0V25h3.5a.5.5,0,0,1,0,1Z" fill="#f12e39"/>
      <path id="Path_35579" data-name="Path 35579" d="M25.5,28c-1.153,0-2.5-.393-2.5-1.5,0-1.064,1.71-4.538,2.053-5.224a.5.5,0,1,1,.9.447A23.413,23.413,0,0,0,24,26.5c0,.3.9.5,1.5.5a.5.5,0,0,1,0,1Z" fill="#f12e39"/>
    </g>
    <path id="Path_35580" data-name="Path 35580" d="M0,0H1088" transform="translate(416 3017.5)" fill="none" stroke="#707070" stroke-width="1"/>
    <g id="Ellipse_311" data-name="Ellipse 311" transform="translate(536 3012.742)" fill="#3f3d56" stroke="#fbfbfb" stroke-width="5">
      <ellipse cx="4.68" cy="4.68" rx="4.68" ry="4.68" stroke="none"/>
      <ellipse cx="4.68" cy="4.68" rx="7.18" ry="7.18" fill="none"/>
    </g>
    <g id="Ellipse_312" data-name="Ellipse 312" transform="translate(671 3012.742)" fill="#3f3d56" stroke="#fbfbfb" stroke-width="5">
      <ellipse cx="4.68" cy="4.68" rx="4.68" ry="4.68" stroke="none"/>
      <ellipse cx="4.68" cy="4.68" rx="7.18" ry="7.18" fill="none"/>
    </g>
    <g id="Ellipse_313" data-name="Ellipse 313" transform="translate(806 3012.742)" fill="#3f3d56" stroke="#fbfbfb" stroke-width="5">
      <ellipse cx="4.68" cy="4.68" rx="4.68" ry="4.68" stroke="none"/>
      <ellipse cx="4.68" cy="4.68" rx="7.18" ry="7.18" fill="none"/>
    </g>
    <g id="Ellipse_314" data-name="Ellipse 314" transform="translate(947.64 3012.742)" fill="#3f3d56" stroke="#fbfbfb" stroke-width="5">
      <ellipse cx="4.68" cy="4.68" rx="4.68" ry="4.68" stroke="none"/>
      <ellipse cx="4.68" cy="4.68" rx="7.18" ry="7.18" fill="none"/>
    </g>
    <g id="Ellipse_315" data-name="Ellipse 315" transform="translate(1088 3012.742)" fill="#3f3d56" stroke="#fbfbfb" stroke-width="5">
      <ellipse cx="4.68" cy="4.68" rx="4.68" ry="4.68" stroke="none"/>
      <ellipse cx="4.68" cy="4.68" rx="7.18" ry="7.18" fill="none"/>
    </g>
    <g id="Ellipse_316" data-name="Ellipse 316" transform="translate(1228 3012.742)" fill="#3f3d56" stroke="#fbfbfb" stroke-width="5">
      <ellipse cx="4.68" cy="4.68" rx="4.68" ry="4.68" stroke="none"/>
      <ellipse cx="4.68" cy="4.68" rx="7.18" ry="7.18" fill="none"/>
    </g>
    <g id="Ellipse_317" data-name="Ellipse 317" transform="translate(1368 3012.742)" fill="#3f3d56" stroke="#fbfbfb" stroke-width="5">
      <ellipse cx="4.68" cy="4.68" rx="4.68" ry="4.68" stroke="none"/>
      <ellipse cx="4.68" cy="4.68" rx="7.18" ry="7.18" fill="none"/>
    </g>
    <text id="Level_0:_Support_Engineer" data-name="Level 0: 
Support Engineer" transform="translate(541 3187)" fill="#707070" font-size="17" font-family="Aller"><tspan x="-31.543" y="0">Level 0: </tspan><tspan x="-66.81" y="20">Support Engineer</tspan></text>
    <text id="Level_1:_Support_Engineer" data-name="Level 1: 
Support Engineer" transform="translate(676 2926)" fill="#707070" font-size="17" font-family="Aller"><tspan x="-31.543" y="0">Level 1: </tspan><tspan x="-66.81" y="20">Support Engineer</tspan></text>
    <text id="Support_Engineer" data-name="Support Engineer" transform="translate(811 3187)" fill="#707070" font-size="17" font-family="Aller"><tspan x="-66.81" y="0">Support Engineer</tspan></text>
    <text id="Network_administrator" data-name="Network administrator" transform="translate(952 2926)" fill="#707070" font-size="17" font-family="Aller"><tspan x="-86.386" y="0">Network administrator</tspan></text>
    <text id="Senior_analyst" data-name="Senior analyst" transform="translate(1093 3187)" fill="#707070" font-size="17" font-family="Aller"><tspan x="-54.443" y="0">Senior analyst</tspan></text>
    <text id="I.T._Manager" data-name="I.T. Manager" transform="translate(1237 2926)" fill="#707070" font-size="17" font-family="Aller"><tspan x="-45.466" y="0">I.T. Manager</tspan></text>
    <text id="General_Manager_I.T._and_IMS" data-name="General Manager I.T. and IMS" transform="translate(1373 3187)" fill="#707070" font-size="17" font-family="Aller"><tspan x="-109.888" y="0">General Manager I.T. and IMS</tspan></text>
    <line id="Line_57" data-name="Line 57" y2="46" transform="translate(540.5 3017.5)" fill="none" stroke="#3f3d56" stroke-width="1"/>
    <line id="Line_61" data-name="Line 61" y2="46" transform="translate(1092.5 3017.5)" fill="none" stroke="#3f3d56" stroke-width="1"/>
    <line id="Line_58" data-name="Line 58" y2="46" transform="translate(675.5 2971.5)" fill="none" stroke="#3f3d56" stroke-width="1"/>
    <line id="Line_63" data-name="Line 63" y2="46" transform="translate(952.5 2971.5)" fill="none" stroke="#3f3d56" stroke-width="1"/>
    <line id="Line_62" data-name="Line 62" y2="46" transform="translate(1232.5 2971.5)" fill="none" stroke="#3f3d56" stroke-width="1"/>
    <line id="Line_59" data-name="Line 59" y2="46" transform="translate(810.5 3017.5)" fill="none" stroke="#3f3d56" stroke-width="1"/>
    <line id="Line_60" data-name="Line 60" y2="46" transform="translate(1372.5 3017.5)" fill="none" stroke="#3f3d56" stroke-width="1"/>
  </g>
</svg>
